<?xml version="1.0" standalone="no"?>
<!DOCTYPE svg PUBLIC "-//W3C//DTD SVG 20010904//EN"
 "http://www.w3.org/TR/2001/REC-SVG-20010904/DTD/svg10.dtd">
<svg version="1.0" xmlns="http://www.w3.org/2000/svg"
 width="3372.000000pt" height="1344.000000pt" viewBox="0 0 3372.000000 1344.000000"
 preserveAspectRatio="xMidYMid meet">

<g transform="translate(0.000000,1344.000000) scale(0.100000,-0.100000)"
fill="#000000" stroke="none">
<path d="M6320 13383 c-8 -3 -58 -26 -110 -50 -97 -46 -124 -70 -205 -173 -75
-98 -93 -154 -110 -345 -3 -38 -8 -78 -11 -87 -6 -22 -54 -34 -159 -42 -113
-9 -353 -44 -465 -68 -256 -54 -339 -76 -605 -164 -160 -53 -197 -62 -227 -55
-19 5 -41 12 -47 16 -42 25 -154 -48 -165 -108 -4 -19 -14 -41 -24 -50 -9 -8
-114 -61 -232 -116 -284 -135 -327 -158 -510 -276 -19 -12 -69 -44 -110 -70
-41 -26 -100 -64 -130 -83 -65 -42 -365 -284 -605 -487 -93 -80 -176 -145
-184 -145 -19 0 -294 274 -410 410 -54 63 -108 124 -121 135 -41 37 -51 68
-42 133 15 108 -11 182 -94 266 -65 65 -192 89 -276 53 -48 -20 -122 -89 -142
-131 -40 -84 0 -204 96 -291 70 -64 117 -81 195 -69 32 5 68 8 81 6 28 -4 300
-259 415 -390 47 -53 111 -122 141 -152 64 -62 70 -88 31 -140 -14 -19 -25
-39 -25 -46 0 -6 -7 -17 -15 -24 -22 -18 -48 -77 -40 -89 13 -22 36 -10 70 37
19 26 44 66 55 90 11 23 26 42 34 42 7 0 80 -67 162 -148 82 -81 248 -244 369
-360 230 -222 285 -283 285 -312 0 -9 -70 -93 -156 -186 -85 -93 -163 -180
-172 -194 -9 -13 -75 -109 -147 -211 -340 -489 -513 -804 -667 -1214 -170
-451 -240 -797 -269 -1325 -7 -113 -14 -207 -16 -210 -7 -8 -487 -18 -496 -10
-4 4 -12 33 -18 66 -6 32 -15 82 -20 109 -6 32 -6 71 1 110 6 33 17 130 25
215 14 144 59 408 90 525 7 27 27 104 45 170 17 66 63 218 101 338 39 120 69
221 66 223 -3 3 -15 -21 -26 -53 -12 -32 -28 -71 -35 -88 -44 -98 -124 -335
-160 -475 -57 -218 -152 -837 -141 -915 l6 -40 -32 40 c-108 133 -220 215
-322 234 -27 5 -54 14 -59 19 -26 26 82 563 207 1032 41 156 57 229 53 240 -1
3 4 15 11 28 9 18 9 22 -2 22 -8 0 -20 -18 -27 -40 -8 -23 -19 -44 -25 -48 -6
-4 -28 -50 -49 -102 -21 -52 -44 -111 -53 -130 -48 -109 -111 -359 -168 -660
-42 -223 -56 -284 -70 -306 -9 -14 -43 -31 -96 -48 -171 -55 -305 -154 -376
-277 -72 -126 -91 -317 -44 -454 13 -38 32 -87 43 -108 57 -113 220 -227 378
-263 39 -9 82 -26 96 -37 25 -22 27 -31 84 -357 24 -136 71 -323 130 -520 21
-69 50 -170 65 -225 15 -55 50 -163 77 -240 27 -77 56 -162 63 -190 8 -27 20
-71 28 -97 15 -49 10 -106 -14 -151 -16 -28 -13 -126 4 -167 9 -19 29 -48 46
-64 28 -27 40 -30 115 -35 65 -5 89 -11 106 -26 30 -27 64 -87 93 -165 30 -80
103 -229 142 -290 16 -25 42 -70 58 -100 16 -30 37 -64 47 -75 9 -11 34 -45
54 -77 43 -66 80 -95 101 -78 11 9 10 17 -7 46 -11 19 -24 34 -28 34 -15 0
-84 102 -172 255 -47 82 -109 187 -137 232 -28 46 -51 89 -51 97 0 8 -5 18
-11 21 -14 9 -59 113 -59 138 0 11 10 36 22 56 32 51 32 172 0 223 -12 20 -29
41 -36 47 -18 15 -115 51 -137 51 -21 0 -36 18 -43 50 -3 14 -37 120 -76 235
-65 193 -128 412 -149 517 -5 24 -45 212 -89 418 -108 500 -103 455 -56 470
116 38 231 115 304 205 25 30 50 55 57 55 13 0 43 120 43 172 0 18 4 38 8 43
4 6 105 11 254 14 l247 3 5 -33 c2 -19 10 -97 16 -174 18 -234 88 -656 146
-890 54 -217 173 -558 255 -730 113 -240 301 -545 347 -564 39 -17 1345 -9
1447 9 65 11 257 9 545 -6 80 -4 253 -7 275 -5 6 1 4 5 -4 10 -12 8 -13 12 -1
25 7 9 10 19 7 23 -4 3 -12 -6 -18 -20 l-12 -26 -18 24 c-11 13 -19 29 -19 36
0 8 -5 5 -13 -6 -11 -14 -16 -15 -22 -5 -5 9 -4 11 3 6 7 -4 12 -2 12 5 0 6
-8 9 -20 6 -13 -3 -25 2 -35 16 -8 12 -15 17 -15 12 0 -5 -7 0 -16 11 -8 10
-13 13 -9 7 3 -7 1 -13 -4 -13 -6 0 -11 5 -11 11 0 5 -5 7 -10 4 -13 -8 -42
14 -35 25 3 4 -10 10 -27 14 -20 4 -34 2 -39 -5 -4 -8 -11 -5 -18 10 -7 11
-21 21 -31 21 -11 0 -20 5 -20 10 0 6 -12 10 -26 10 -14 0 -23 -4 -19 -10 3
-5 2 -10 -4 -10 -5 0 -13 5 -16 10 -3 6 -11 10 -16 10 -6 0 -8 -4 -5 -9 3 -5
-1 -12 -10 -15 -10 -4 -15 0 -13 12 3 30 -1 34 -17 17 -9 -8 -13 -22 -10 -30
3 -8 1 -17 -4 -20 -5 -3 -26 29 -46 72 -43 91 -71 125 -94 118 -16 -5 -74 18
-66 26 2 2 -20 4 -50 4 -30 0 -54 -4 -54 -9 0 -5 -3 -6 -7 -2 -5 4 -8 12 -8
18 0 6 -10 13 -23 15 -17 2 -21 -1 -16 -9 5 -9 2 -9 -9 1 -9 7 -17 10 -17 5 0
-4 -6 0 -12 9 -7 10 -24 19 -37 22 -50 9 -90 27 -88 38 1 7 -8 12 -20 11 -17
0 -20 3 -13 16 6 12 4 16 -12 17 -12 1 -24 6 -27 10 -3 5 -13 8 -21 8 -24 -2
-33 7 -19 16 10 6 6 9 -13 9 -16 0 -28 6 -28 13 0 7 -13 18 -30 24 -16 6 -30
18 -30 27 0 9 -5 16 -11 16 -5 0 -7 -6 -4 -12 4 -7 -1 -4 -9 6 -9 11 -16 25
-16 32 0 7 -8 15 -18 18 -10 4 -25 22 -32 41 -8 19 -17 35 -21 35 -3 0 -19 28
-35 63 -25 55 -28 72 -27 152 2 108 15 147 103 310 l65 120 -1 90 c0 50 -9
124 -19 165 -27 117 -29 140 -13 140 14 0 53 34 180 156 31 30 60 54 65 54 20
0 106 -65 141 -107 20 -24 53 -55 74 -69 30 -21 40 -24 57 -14 32 16 263 -7
318 -33 46 -20 97 -77 153 -167 43 -69 115 -147 154 -167 57 -29 142 -54 215
-63 64 -7 77 -12 108 -42 36 -35 110 -175 139 -266 10 -33 14 -68 11 -94 -3
-22 -3 -47 0 -54 8 -21 37 -17 59 7 16 17 27 20 66 17 37 -4 69 -20 160 -80
62 -41 118 -77 124 -81 6 -4 64 -18 129 -31 64 -14 122 -29 128 -34 7 -6 48
-29 92 -52 44 -24 91 -51 105 -60 14 -10 41 -24 60 -33 106 -45 147 -107 131
-194 -10 -53 -38 -95 -129 -197 -39 -43 -85 -106 -103 -139 l-32 -61 13 -101
c18 -140 19 -150 21 -240 2 -66 -2 -88 -21 -125 -21 -41 -80 -108 -80 -92 -1
4 -10 -4 -20 -17 -12 -14 -20 -18 -20 -10 0 10 -2 11 -8 2 -5 -8 -19 -9 -42
-4 -35 8 -35 8 -8 15 17 5 29 17 33 34 4 15 12 30 18 34 6 3 12 28 15 53 2 30
0 45 -7 41 -5 -4 -12 -2 -16 4 -7 11 5 13 43 10 12 -1 22 4 22 10 0 6 -4 8
-10 5 -18 -11 -10 34 8 47 23 17 22 89 -3 146 -16 35 -21 40 -34 29 -12 -9
-13 -9 -7 1 5 8 0 12 -18 12 -14 0 -28 -5 -31 -10 -4 -6 -12 -7 -18 -4 -7 4
-9 4 -5 -1 9 -10 -16 -35 -35 -35 -8 0 -18 7 -21 16 -5 14 -4 15 7 5 11 -9 17
-8 27 4 10 13 9 15 -11 16 -13 1 -27 1 -31 0 -4 0 -5 5 -2 12 6 16 -33 16 -44
1 -11 -15 -42 -13 -42 3 0 10 -6 13 -15 9 -8 -3 -22 -9 -32 -13 -11 -4 -14 -3
-9 5 4 7 2 12 -3 12 -6 0 -11 -6 -11 -12 0 -10 -2 -10 -8 -1 -4 6 -19 10 -35
10 -30 -2 -42 -24 -32 -57 4 -11 8 -32 10 -48 2 -15 4 -27 5 -27 2 0 7 -44 15
-132 10 -114 29 -208 46 -227 5 -6 9 -23 9 -39 0 -21 -4 -28 -16 -25 -19 3
-47 97 -58 188 -11 92 -75 342 -86 335 -4 -2 -6 6 -6 18 1 19 -3 22 -36 19
-20 -2 -47 2 -59 9 -17 9 -24 9 -27 0 -2 -6 -9 -8 -15 -4 -10 6 -99 11 -337
17 -63 2 -117 4 -120 6 -3 1 -9 2 -14 1 -4 -1 -13 2 -20 7 -6 5 -20 8 -31 6
-10 -1 -25 2 -32 8 -9 7 -13 7 -13 0 0 -7 -13 -6 -36 4 -19 8 -44 12 -54 9
-11 -3 -28 -2 -38 4 -13 7 -22 7 -30 -1 -17 -17 -15 -92 3 -135 8 -19 15 -43
15 -52 0 -9 11 -36 24 -61 13 -25 33 -76 45 -114 12 -38 31 -87 41 -110 56
-123 75 -186 56 -186 -15 0 -91 135 -105 186 -6 21 -17 48 -24 59 -17 24 -37
79 -44 120 -3 17 -9 38 -14 47 -7 13 -6 18 3 18 9 0 10 2 2 8 -7 4 -13 16 -15
26 -4 21 -34 44 -45 34 -3 -4 -7 -18 -8 -32 0 -14 -5 -26 -10 -26 -5 0 -7 -2
-4 -5 3 -3 -12 -23 -32 -44 -24 -25 -82 -127 -160 -283 -183 -362 -317 -606
-361 -659 -21 -26 -39 -56 -39 -67 0 -23 42 -63 170 -158 299 -223 722 -416
1189 -544 208 -58 558 -117 851 -145 317 -30 353 -34 364 -45 8 -8 11 -110 11
-323 -1 -304 -1 -313 -22 -348 -22 -35 -22 -35 -3 -52 40 -34 18 -58 -61 -69
-138 -19 -255 -105 -345 -254 -25 -41 -47 -68 -55 -65 -8 2 -79 14 -159 27
-233 38 -339 62 -610 135 -245 67 -321 91 -555 177 -203 74 -261 100 -750 338
-49 24 -106 56 -125 73 -33 27 -35 33 -35 90 -1 79 -23 110 -96 134 -116 39
-189 12 -226 -85 l-20 -53 23 -47 c33 -66 79 -115 120 -128 23 -8 60 -9 105
-5 l70 7 117 -70 c324 -194 553 -304 862 -412 446 -157 731 -224 1198 -286 58
-7 70 -29 82 -153 17 -165 80 -293 196 -401 114 -106 273 -166 405 -154 215
21 344 99 438 266 64 112 84 183 86 298 1 58 3 112 4 121 1 21 40 36 111 43
174 19 678 130 900 198 285 87 754 284 792 334 27 33 55 43 93 33 37 -11 47
-1 36 36 -5 17 -10 24 -10 18 -1 -7 -6 -13 -12 -13 -5 0 -8 4 -4 9 12 21 -12
18 -30 -3 -17 -19 -25 -22 -52 -14 -35 10 -52 4 -328 -102 -378 -145 -621
-219 -1030 -311 -49 -11 -119 -27 -154 -35 -94 -22 -221 -44 -258 -44 -17 0
-35 -4 -38 -10 -13 -21 -31 -8 -70 53 -96 149 -217 233 -384 266 -71 14 -86
20 -89 36 -4 34 14 48 67 53 62 6 68 22 9 22 -24 0 -49 4 -56 8 -19 13 -29
660 -10 684 11 14 46 19 228 28 509 25 771 87 1425 335 483 183 591 237 895
445 387 266 887 753 1082 1055 207 319 352 574 422 740 14 33 48 114 77 180
45 106 96 241 160 430 46 134 149 565 149 622 0 12 9 66 19 120 41 211 60 820
33 1088 -20 198 -83 531 -106 553 -15 15 -31 16 -124 7 -52 -6 -67 -3 -95 13
-40 25 -93 35 -179 35 -67 -1 -68 0 -105 41 -64 71 -103 120 -103 128 0 5 -7
8 -15 8 -8 0 -15 5 -15 10 0 16 -47 11 -54 -6 -19 -48 14 -197 67 -303 58
-117 168 -207 262 -215 46 -5 47 -5 42 -18 -2 -7 2 -29 8 -49 7 -19 16 -60 19
-90 3 -30 10 -72 14 -94 11 -54 5 -127 -13 -161 -8 -16 -15 -34 -15 -39 0 -12
-24 -46 -58 -82 -13 -14 -21 -30 -19 -36 2 -7 -1 -17 -7 -23 -6 -6 -17 -21
-25 -32 -12 -17 -18 -19 -30 -9 -8 7 -12 7 -9 2 4 -6 2 -17 -3 -25 -8 -13 -13
-11 -30 10 -11 14 -18 19 -14 13 4 -8 0 -13 -9 -13 -10 0 -13 6 -10 15 4 8 1
15 -5 15 -6 0 -11 -4 -11 -8 0 -21 -48 -4 -82 30 -36 36 -76 112 -201 378 -61
133 -181 374 -188 380 -3 3 -15 21 -26 40 -12 19 -37 49 -55 67 -31 30 -35 31
-63 19 -46 -20 -42 -51 19 -184 29 -64 77 -173 106 -242 29 -69 74 -177 100
-240 27 -63 60 -146 75 -185 15 -38 36 -89 47 -112 11 -24 21 -49 22 -55 5
-26 48 -113 57 -119 6 -3 10 -9 9 -13 -1 -6 88 -189 114 -234 7 -13 17 -23 22
-23 5 0 13 -7 17 -15 5 -8 12 -12 18 -9 5 4 9 1 9 -5 0 -7 6 -8 18 -1 11 6 24
6 36 -1 21 -12 36 -1 16 12 -13 8 -12 10 3 10 10 0 15 4 12 10 -3 6 -1 11 4
11 6 1 15 2 20 3 6 0 16 8 23 16 11 12 11 12 -4 2 -11 -9 -18 -10 -23 -2 -3 5
-2 10 2 10 5 0 21 11 36 25 18 18 27 21 27 11 0 -7 -7 -16 -15 -20 -8 -3 -14
-9 -13 -13 1 -4 -4 -27 -11 -50 -8 -31 -16 -41 -26 -36 -11 4 -13 1 -9 -11 3
-9 1 -16 -5 -16 -6 0 -11 5 -11 10 0 6 -5 10 -10 10 -6 0 -9 -3 -9 -7 4 -23
-5 -29 -38 -26 l-38 3 40 -15 c30 -11 33 -14 13 -11 -28 3 -31 -1 -30 -39 1
-15 0 -16 -4 -3 -8 25 -33 31 -26 6 4 -16 2 -19 -8 -13 -10 6 -12 4 -7 -8 4
-12 1 -17 -12 -17 -10 0 -18 -7 -18 -15 0 -8 4 -12 9 -9 12 8 9 -9 -6 -28 -7
-10 -16 -15 -19 -12 -3 3 -3 -3 0 -15 6 -24 -15 -29 -35 -9 -9 9 -12 9 -12 0
0 -7 3 -12 8 -12 4 0 13 -10 21 -22 13 -21 13 -22 -1 -10 -9 7 -23 9 -32 6
-15 -6 -15 -8 1 -21 17 -13 16 -14 -6 -7 -17 4 -22 3 -19 -7 7 -19 -11 -52
-25 -46 -7 2 -18 -2 -26 -10 -12 -13 -11 -14 10 -9 13 3 5 -4 -18 -16 -24 -12
-43 -28 -43 -35 0 -7 -7 -13 -15 -13 -8 0 -15 -4 -15 -10 0 -5 7 -7 15 -4 8 4
22 0 31 -7 14 -11 18 -10 30 6 8 10 14 14 14 8 0 -6 11 -13 25 -15 14 -3 25
-1 25 3 0 5 8 9 19 9 10 0 24 7 31 15 7 8 16 12 21 9 5 -3 9 3 10 13 0 10 3
13 6 6 2 -7 9 -13 14 -13 6 0 7 5 4 10 -3 6 0 10 8 10 8 0 13 -9 11 -23 -1
-12 -3 -27 -3 -32 -1 -6 -10 -16 -22 -23 -18 -11 -23 -11 -35 5 -14 17 -14 16
-5 -4 13 -26 14 -33 4 -32 -25 4 -43 -3 -43 -16 0 -8 -4 -15 -10 -15 -16 0
-90 -79 -90 -96 0 -10 -5 -14 -16 -10 -8 3 -12 2 -9 -4 3 -6 1 -10 -6 -10 -8
0 -7 -5 2 -17 12 -15 12 -16 -4 -10 -15 6 -16 4 -7 -13 6 -11 6 -21 1 -25 -6
-3 -8 -14 -6 -25 5 -24 -32 -29 -41 -5 -8 21 -19 19 -21 -4 -1 -12 3 -18 10
-15 7 2 21 -3 32 -12 11 -8 14 -12 6 -8 -7 3 -18 0 -23 -7 -8 -11 -9 -11 -5 2
4 13 -3 16 -35 15 -32 -1 -42 -5 -44 -19 -4 -26 -10 -31 -18 -12 -4 11 -2 14
6 9 6 -4 8 -3 5 3 -4 6 -19 8 -34 6 -16 -3 -36 -5 -45 -6 -9 -1 -15 -3 -13 -6
3 -2 -3 -14 -12 -25 l-18 -21 25 20 24 20 -16 -25 c-9 -14 -25 -25 -37 -24
-12 0 -22 -3 -22 -8 -1 -4 -2 -12 -3 -17 -4 -29 -63 -57 -82 -38 -13 13 -27 7
-15 -7 9 -11 9 -15 -1 -19 -10 -4 -10 -7 1 -15 10 -7 10 -11 1 -17 -7 -4 -13
1 -17 14 l-5 21 -20 -22 c-10 -12 -16 -28 -13 -36 3 -7 5 -16 5 -18 0 -3 5 -2
12 2 7 4 8 3 4 -4 -5 -9 -13 -9 -27 -1 -19 9 -19 9 -10 -10 7 -12 7 -22 2 -25
-5 -4 -12 0 -15 6 -5 11 -7 11 -12 0 -3 -6 -11 -10 -17 -6 -7 3 -3 -2 7 -10
11 -9 14 -16 8 -16 -7 0 -12 -7 -12 -15 0 -8 -5 -15 -11 -15 -6 0 -9 7 -5 15
3 8 1 15 -4 15 -5 0 -12 -11 -16 -25 -3 -14 -10 -25 -16 -25 -5 0 -6 -4 -3
-10 3 -5 1 -10 -4 -10 -6 0 -11 -7 -11 -15 0 -8 -5 -15 -10 -15 -6 0 -10 -6
-9 -12 3 -18 -24 -108 -32 -108 -3 0 -4 -12 -1 -26 4 -20 2 -25 -8 -19 -10 6
-12 1 -8 -18 3 -17 -1 -33 -14 -47 -11 -12 -14 -20 -7 -20 8 0 7 -6 -3 -17 -8
-10 -15 -34 -17 -53 -3 -59 -28 -60 -46 -1 -6 18 -4 22 6 15 11 -6 12 -5 2 8
-7 8 -9 18 -5 22 4 4 8 20 8 34 1 15 5 56 8 90 5 46 3 68 -6 80 -11 13 -11 14
2 7 13 -8 13 -7 1 8 -10 13 -10 17 -1 17 9 0 9 4 -1 17 -8 9 -9 14 -3 10 6 -3
11 0 11 8 0 17 -16 9 -40 -22 -23 -29 -39 -21 -31 15 5 25 4 25 -9 10 -16 -20
-33 -23 -42 -7 -4 6 -1 9 6 7 8 -1 14 2 14 7 0 6 -6 9 -13 8 -8 0 -11 5 -7 14
4 12 3 13 -8 5 -8 -7 -18 -9 -23 -5 -5 4 -3 1 4 -7 17 -20 15 -40 -5 -40 -11
0 -14 -3 -8 -8 6 -4 11 -20 11 -35 l1 -29 -24 26 c-28 31 -47 34 -40 6 4 -15
0 -20 -13 -20 -10 0 -21 6 -24 13 -3 6 -3 1 0 -13 5 -23 4 -24 -9 -7 -8 10
-13 27 -10 37 3 11 0 20 -6 20 -6 0 -11 -4 -11 -10 0 -5 -7 -7 -16 -3 -8 3
-13 12 -10 19 3 7 1 16 -4 19 -9 6 -14 -8 -11 -27 0 -4 -6 -5 -14 -2 -8 4 -15
10 -15 16 0 5 4 7 9 4 5 -4 7 2 4 12 -6 23 -64 47 -74 31 -4 -8 -9 -7 -15 2
-4 7 -3 14 4 17 18 6 4 22 -20 22 -18 0 -19 -2 -7 -17 9 -11 10 -14 2 -9 -7 4
-22 2 -34 -5 -20 -10 -21 -9 -16 10 3 11 1 21 -3 21 -15 0 -22 -20 -11 -33 6
-8 6 -18 1 -27 -7 -12 -10 -12 -16 3 -3 10 -7 33 -7 52 -1 19 -4 35 -8 35 -10
0 -20 -30 -13 -41 3 -5 -2 -9 -10 -9 -9 0 -16 7 -16 15 0 10 -7 15 -17 13 -13
-2 -18 3 -17 19 0 12 -3 20 -8 17 -4 -3 -8 6 -8 20 0 14 -5 28 -11 31 -6 4 -8
13 -5 21 3 8 2 14 -2 14 -12 0 -5 101 7 113 6 6 11 19 11 28 0 10 6 24 14 31
7 8 17 47 20 89 l7 75 -55 52 c-65 62 -93 74 -168 73 -69 -1 -95 8 -139 49
-19 17 -44 33 -57 36 -39 11 -105 -7 -177 -46 -166 -91 -146 -85 -225 -70 -85
16 -163 4 -245 -36 -27 -13 -66 -27 -86 -30 -44 -7 -85 18 -189 120 -41 40
-100 91 -131 114 -55 42 -110 108 -128 155 -5 14 -35 68 -65 121 -31 53 -56
100 -56 105 0 4 -13 26 -30 49 -40 55 -46 84 -25 124 82 158 78 144 72 247 -3
70 -11 109 -27 146 -27 58 -30 127 -8 152 8 10 20 33 26 50 6 18 50 90 98 160
74 109 87 136 92 178 5 54 16 75 40 75 12 0 59 19 121 49 8 4 24 20 35 35 18
24 20 40 18 144 l-2 117 39 61 c28 44 60 76 108 109 l68 48 60 -12 c57 -10 63
-9 120 18 33 15 83 48 110 72 108 95 130 105 275 125 237 31 247 26 300 -154
29 -101 58 -131 137 -142 54 -7 75 -17 145 -67 114 -81 129 -90 175 -102 65
-18 86 -4 127 83 45 95 35 94 254 39 153 -37 183 -38 239 -4 39 24 80 93 86
145 9 68 -51 248 -101 304 -27 31 -78 38 -126 18 -21 -9 -52 -16 -68 -16 -42
0 -138 54 -138 77 0 6 -7 17 -16 24 -19 16 -33 51 -40 100 -5 31 0 44 28 80
111 145 128 152 308 144 74 -3 140 -2 145 2 17 13 35 62 35 93 0 17 5 30 11
30 5 0 7 6 3 13 -4 6 7 -1 25 -18 47 -43 112 -148 150 -240 98 -239 191 -289
267 -144 23 44 17 145 -11 186 -13 18 -25 29 -29 26 -3 -4 -6 -1 -6 5 0 9 -32
47 -103 122 -8 8 -30 29 -49 47 -34 31 -88 126 -88 155 0 8 -3 17 -6 21 -3 3
-6 49 -6 101 0 53 -4 93 -9 90 -5 -3 -9 -1 -9 5 0 5 5 13 11 16 7 5 5 13 -5
24 -9 10 -14 21 -11 24 3 4 2 5 -1 2 -8 -5 -64 26 -64 36 0 12 -43 -3 -72 -25
-16 -11 -28 -24 -28 -30 0 -5 -6 -17 -14 -25 -16 -20 -36 -98 -36 -145 0 -20
15 -66 33 -103 39 -82 40 -99 7 -95 -13 1 -27 6 -30 11 -3 5 -23 14 -46 21
-25 7 -66 36 -110 76 -80 73 -116 93 -139 74 -8 -7 -15 -23 -15 -36 0 -15 -6
-24 -15 -24 -16 0 -28 12 -74 77 -36 49 -75 78 -96 69 -52 -20 -49 -230 8
-462 3 -12 8 -43 11 -70 l6 -49 -50 -30 c-44 -26 -52 -36 -67 -83 -12 -37 -21
-51 -31 -47 -7 3 -18 5 -22 5 -5 0 -36 38 -70 84 -67 93 -125 139 -390 308
-115 74 -158 94 -177 82 -31 -19 -35 -73 -11 -127 24 -52 96 -108 172 -135
108 -37 207 -101 230 -150 22 -46 21 -99 -3 -112 -16 -8 -24 -3 -52 31 -65 82
-146 155 -210 187 -35 17 -67 32 -72 32 -4 0 -17 9 -29 20 -12 11 -25 20 -30
20 -4 0 -34 18 -67 41 -64 44 -80 45 -131 9 -14 -10 -61 -32 -105 -50 -113
-47 -156 -95 -178 -198 -9 -42 -20 -106 -23 -142 -9 -90 -39 -140 -110 -180
-51 -30 -60 -32 -112 -25 -98 12 -184 73 -219 155 -26 58 -53 179 -64 284 -14
134 -17 131 152 131 127 0 131 1 151 25 17 21 19 35 15 81 -6 65 -31 120 -87
184 -22 25 -40 50 -40 55 0 24 15 40 46 50 107 36 174 99 243 231 24 46 62
100 83 120 42 39 58 43 278 70 80 9 99 15 123 37 51 48 60 76 59 195 0 111 11
161 42 186 25 21 30 70 11 91 -10 11 -20 19 -24 18 -8 -2 -77 17 -165 45 -84
27 -93 41 -102 168 -13 197 -48 188 -126 -34 -22 -63 -22 -67 -5 -102 9 -19
55 -75 102 -124 86 -90 108 -124 120 -197 14 -85 -40 -184 -100 -184 -30 0
-85 51 -85 79 0 22 -49 97 -88 135 -36 34 -89 39 -141 13 -61 -30 -96 -23
-151 32 -60 60 -90 117 -90 172 0 35 8 51 46 98 26 31 50 66 55 79 5 13 11 73
15 135 4 98 14 170 31 230 2 9 18 24 34 33 91 47 326 -6 424 -96 22 -20 53
-45 69 -56 16 -10 47 -31 70 -46 47 -32 86 -35 108 -10 29 32 68 129 68 167 0
38 -18 105 -31 115 -4 3 -19 27 -33 55 -15 27 -30 52 -34 55 -5 3 -15 15 -23
26 -25 37 -118 134 -128 134 -5 0 -12 9 -16 20 -7 21 -194 117 -320 165 -189
70 -251 92 -326 114 -35 10 -102 30 -149 44 -262 77 -512 125 -825 158 -60 6
-118 16 -129 21 -17 9 -18 27 -15 336 2 180 7 341 11 358 12 47 66 71 127 56
26 -6 75 -14 111 -17 36 -4 134 -15 219 -26 155 -20 211 -20 104 0 -32 7 -87
19 -123 27 -36 9 -134 22 -218 29 -122 10 -156 16 -173 30 -33 30 -21 57 36
78 161 61 249 119 304 201 14 21 33 50 42 63 37 55 47 57 192 33 73 -12 168
-28 212 -35 44 -8 134 -25 200 -39 66 -15 152 -33 190 -42 39 -8 91 -22 117
-30 97 -31 143 3 70 51 -93 62 -316 126 -587 170 -49 8 -110 19 -135 24 -25 5
-67 13 -95 16 -84 11 -82 8 -88 157 -7 194 -40 274 -160 389 -111 106 -281
170 -448 168 -52 0 -101 -3 -109 -6z m318 -163 c90 -41 152 -105 207 -215 l40
-78 0 -121 c0 -113 -2 -125 -29 -180 -34 -70 -71 -113 -136 -161 -75 -55 -119
-67 -246 -66 -125 1 -154 10 -245 71 -69 47 -101 84 -141 164 -27 52 -32 75
-36 157 -7 154 26 255 116 351 81 86 166 119 302 115 84 -2 104 -7 168 -37z
m-715 -641 c12 -6 63 -52 112 -103 90 -92 200 -173 264 -195 42 -14 71 -38 71
-60 0 -8 -12 -26 -27 -39 -16 -13 -23 -25 -18 -28 6 -2 25 -13 43 -24 l32 -20
0 -333 c0 -216 -4 -345 -11 -365 -14 -41 -44 -48 -219 -55 -137 -6 -400 -35
-545 -62 -44 -7 -136 -24 -205 -36 -281 -48 -579 -132 -740 -206 -30 -14 -104
-48 -164 -74 -60 -27 -145 -69 -190 -93 -44 -24 -112 -61 -151 -81 -194 -104
-491 -307 -745 -508 -103 -81 -142 -107 -150 -102 -8 5 -336 336 -375 379 -32
34 -85 111 -85 122 0 23 107 140 217 236 161 141 288 235 578 428 227 151 687
392 850 445 22 7 96 34 165 58 69 25 157 57 195 71 39 13 119 36 179 50 60 13
114 30 120 37 13 14 -51 6 -123 -15 -25 -8 -91 -23 -146 -35 -123 -27 -265
-72 -353 -113 -150 -69 -170 -78 -234 -102 -245 -92 -671 -347 -1051 -630
-185 -137 -362 -292 -401 -352 -16 -24 -36 -44 -45 -44 -27 0 -251 247 -251
277 0 31 69 102 223 231 153 126 152 126 278 220 46 34 97 73 113 85 16 12 43
31 60 43 32 21 50 33 251 169 136 92 144 96 425 234 243 119 283 141 293 157
4 7 26 15 50 19 58 9 117 27 117 35 0 4 13 7 29 8 16 0 53 17 81 36 29 20 60
36 69 36 9 0 61 16 116 35 313 111 411 139 655 189 309 65 597 98 643 75z m62
-1502 c51 -14 45 -12 80 -26 57 -24 144 -24 265 -1 100 20 121 21 170 10 71
-16 106 -34 152 -80 52 -54 69 -100 71 -200 2 -92 -8 -127 -55 -197 -30 -45
-34 -63 -17 -95 6 -11 8 -30 5 -41 -10 -34 -99 -98 -226 -162 -63 -32 -143
-76 -177 -97 -35 -21 -99 -56 -142 -77 -98 -50 -133 -91 -192 -226 -46 -106
-75 -145 -109 -145 -48 0 -169 148 -191 234 -6 26 -10 82 -7 125 4 64 10 87
37 135 31 54 90 108 131 121 32 10 34 58 5 130 -24 62 -25 69 -15 150 11 89 4
125 -25 125 -8 0 -15 4 -15 10 0 5 -18 19 -39 30 -52 26 -61 54 -27 89 33 34
33 39 -2 35 -44 -5 -74 -19 -163 -74 -136 -85 -195 -106 -284 -101 l-50 2 51
-53 c29 -29 57 -63 63 -76 7 -12 17 -75 23 -140 8 -90 17 -132 39 -184 34 -78
33 -72 13 -92 -10 -11 -34 -16 -75 -16 -73 0 -98 -15 -144 -84 -60 -90 -92
-121 -114 -110 -31 15 -141 122 -141 138 0 18 9 27 98 96 83 64 108 107 97
167 -8 49 -55 109 -101 128 -33 14 -35 16 -30 55 3 24 1 40 -4 38 -27 -9 -112
-86 -117 -106 -7 -29 12 -51 29 -34 7 7 20 12 31 12 14 0 17 -5 11 -22 -27
-89 -70 -132 -146 -147 -31 -5 -63 -22 -100 -52 -30 -25 -83 -58 -119 -75 -35
-17 -113 -55 -174 -83 -244 -116 -395 -225 -395 -285 0 -40 47 -121 116 -201
90 -104 101 -129 84 -200 -10 -42 -10 -67 -2 -111 19 -95 48 -110 83 -43 47
94 111 179 174 235 83 74 97 96 130 214 35 124 77 204 119 223 59 28 123 46
144 40 30 -7 59 -74 76 -172 8 -47 21 -91 29 -99 13 -12 18 -9 43 25 49 67 79
80 101 43 7 -10 22 -79 33 -152 27 -180 43 -228 90 -283 47 -55 51 -88 20
-187 -11 -34 -20 -69 -20 -76 0 -7 18 -32 40 -56 48 -52 63 -94 46 -126 -13
-28 -71 -60 -106 -60 -37 0 -146 55 -165 83 -14 22 -14 28 1 73 9 27 32 73 52
102 19 28 32 55 28 59 -3 4 -37 -1 -74 -11 -84 -22 -187 -22 -237 -2 -21 9
-55 16 -77 16 -35 0 -46 -7 -108 -71 -47 -48 -70 -79 -70 -95 0 -30 5 -30 55
1 73 45 128 26 106 -36 -22 -63 -15 -98 29 -138 22 -20 40 -44 40 -52 0 -20
-27 -44 -59 -54 -13 -4 -40 -21 -58 -39 -38 -34 -72 -55 -90 -56 -7 0 -23 12
-37 26 l-24 27 -44 -26 c-78 -46 -182 -136 -218 -188 -26 -39 -51 -59 -98 -84
-82 -43 -183 -134 -275 -248 -42 -52 -126 -140 -188 -198 -151 -139 -158 -147
-163 -183 -3 -17 -7 -111 -10 -208 -6 -202 -11 -223 -59 -212 -41 8 -43 13
-51 93 -20 199 -112 298 -252 272 -32 -6 -76 -6 -124 1 l-76 11 -59 -38 c-76
-48 -159 -133 -190 -195 -54 -107 -92 -314 -80 -440 11 -119 48 -171 146 -205
74 -26 90 -21 126 38 17 29 35 65 38 80 9 36 60 77 95 77 75 0 95 -79 42 -173
-34 -60 -53 -119 -43 -135 3 -6 31 -20 61 -31 88 -33 119 -57 142 -108 19 -43
20 -62 17 -262 l-4 -215 52 -12 c78 -17 139 -70 119 -103 -10 -15 -104 -61
-126 -61 -29 0 -119 61 -166 112 -44 48 -45 52 -64 213 -6 50 -18 114 -26 143
-14 48 -19 54 -67 76 -29 13 -74 32 -102 42 -46 17 -109 72 -192 168 -19 22
-31 26 -73 26 -59 0 -181 26 -203 43 -9 7 -21 40 -26 76 -9 54 -16 69 -46 96
-40 38 -40 33 -19 185 22 158 32 301 26 390 -2 41 -5 167 -5 279 -2 153 -5
205 -14 208 -18 6 -31 -35 -44 -140 -34 -275 -48 -379 -53 -384 -9 -10 -38 20
-53 54 -19 46 -16 183 7 284 26 119 143 518 189 648 86 239 176 396 394 691
55 74 114 151 131 170 17 20 42 51 56 70 14 18 48 60 76 92 75 87 215 375 259
530 22 81 97 153 315 303 80 55 126 89 204 150 150 116 192 139 299 160 15 3
39 19 54 36 38 42 62 35 93 -26 51 -100 63 -114 114 -136 54 -24 120 -28 234
-16 48 5 84 18 153 56 77 41 94 54 109 88 9 21 33 57 54 78 25 28 36 49 36 71
0 28 4 32 48 45 l47 14 -3 47 c-3 44 10 88 26 88 26 -1 37 -24 42 -87 5 -66 6
-68 44 -89 38 -21 72 -22 60 -2 -7 10 29 48 45 48 6 0 25 15 43 33 38 39 178
148 243 191 39 25 59 30 172 40 141 12 258 10 318 -7z m-1394 -249 c1 -15 2
-34 3 -40 1 -9 20 -13 57 -13 73 0 88 -13 85 -73 -3 -58 -29 -110 -59 -117
-12 -3 -44 -10 -72 -15 -27 -6 -61 -18 -73 -26 -33 -21 -109 -20 -133 2 -28
25 -24 48 22 130 83 151 167 226 170 152z m2286 -724 c51 -25 65 -64 37 -102
-33 -43 -109 -76 -178 -77 -56 0 -60 2 -92 39 -56 65 -39 130 42 156 43 14
147 5 191 -16z m517 -437 c38 -79 195 -258 290 -332 37 -29 39 -33 32 -69 -15
-81 -126 -142 -207 -114 -30 10 -69 74 -69 112 0 33 24 82 45 89 8 4 15 11 15
16 0 21 -66 84 -118 113 -75 43 -89 67 -75 132 26 121 47 134 87 53z m-54
-242 c7 -9 15 -37 17 -63 4 -42 0 -54 -36 -109 -58 -87 -98 -96 -127 -27 -23
54 -18 114 13 159 14 22 31 43 37 47 20 14 83 8 96 -7z m1004 -1044 c3 -5 0
-14 -8 -20 -10 -9 -15 -8 -19 3 -9 22 15 37 27 17z m345 -210 c18 -12 7 -41
-16 -41 -18 1 -53 22 -53 33 0 5 24 14 45 16 6 0 16 -3 24 -8z m-5275 -1067
c142 -44 287 -201 277 -301 0 -6 -9 -14 -20 -18 -36 -11 -67 13 -114 88 -72
115 -133 152 -241 149 -67 -3 -87 38 -42 83 27 27 47 27 140 -1z m-2544 -46
c75 -34 151 -117 198 -215 36 -76 37 -81 37 -193 0 -107 -2 -119 -29 -170 -59
-112 -147 -203 -234 -242 -62 -28 -164 -34 -239 -14 -89 22 -133 47 -208 117
-177 166 -193 417 -38 607 49 60 96 93 172 120 57 20 80 22 176 19 91 -3 120
-8 165 -29z m3203 -285 c5 -3 15 -21 23 -39 14 -34 14 -34 83 -34 104 0 156
-26 144 -70 -4 -14 -14 -20 -32 -20 -50 1 -209 28 -232 41 -13 7 -59 20 -101
30 -127 28 -164 69 -88 97 34 12 181 9 203 -5z m6302 -753 c-3 -5 -12 -10 -18
-10 -7 0 -6 4 3 10 19 12 23 12 15 0z m-125 -185 c0 -8 -4 -15 -8 -15 -5 0 -9
7 -9 15 0 8 4 15 9 15 4 0 8 -7 8 -15z m-100 -90 c-7 -8 -17 -12 -23 -8 -6 4
-3 9 9 14 27 11 28 11 14 -6z m-13 -257 c-3 -8 -6 -5 -6 6 -1 11 2 17 5 13 3
-3 4 -12 1 -19z m-123 -138 c-6 -6 -10 -3 -10 10 0 13 4 16 10 10 7 -7 7 -13
0 -20z m-74 0 c12 -8 10 -9 -7 -7 -12 2 -26 6 -29 10 -11 11 19 8 36 -3z
m-232 -179 c3 -8 -1 -12 -9 -9 -7 2 -15 10 -17 17 -3 8 1 12 9 9 7 -2 15 -10
17 -17z m-858 -161 c0 -5 -2 -10 -4 -10 -3 0 -8 5 -11 10 -3 6 -1 10 4 10 6 0
11 -4 11 -10z m97 -33 c-1 -16 -3 -16 -13 -3 -6 9 -14 13 -17 9 -4 -3 -7 -1
-7 5 0 6 9 10 19 9 12 -1 19 -8 18 -20z m93 8 c14 -17 14 -17 -18 -20 -19 -2
-20 0 -10 13 11 13 9 14 -12 8 -19 -6 -21 -5 -10 3 21 15 35 14 50 -4z m263
-40 c8 -8 18 -11 22 -7 5 4 5 -1 2 -10 -8 -22 6 -23 27 -3 8 8 17 12 19 8 3
-5 -1 -14 -9 -21 -8 -7 -14 -9 -14 -5 0 4 -8 -1 -18 -12 -9 -11 -16 -19 -15
-17 1 2 -3 17 -9 33 -8 23 -15 28 -29 24 -14 -5 -17 -2 -13 9 8 20 18 20 37 1z
m-222 -55 c5 0 9 -5 9 -12 0 -6 -8 -3 -20 7 -11 10 -16 23 -12 29 4 7 8 5 10
-6 2 -10 8 -18 13 -18z m213 15 c-4 -8 -8 -15 -10 -15 -2 0 -4 7 -4 15 0 8 4
15 10 15 5 0 7 -7 4 -15z m-71 -20 c4 -8 2 -17 -3 -20 -6 -4 -10 3 -10 14 0
25 6 27 13 6z m185 -294 c3 -8 -1 -12 -9 -9 -7 2 -15 10 -17 17 -3 8 1 12 9 9
7 -2 15 -10 17 -17z m-27 -52 c-5 -13 -10 -19 -10 -12 -1 15 10 45 15 40 3 -2
0 -15 -5 -28z m29 -140 c0 -16 -27 -21 -49 -10 -17 10 -20 9 -15 -4 4 -8 2
-15 -4 -15 -21 0 -22 31 0 39 25 9 68 3 68 -10z m-140 -275 c0 -8 -4 -12 -10
-9 -5 3 -10 10 -10 16 0 5 5 9 10 9 6 0 10 -7 10 -16z m-13 -38 c-13 -10 -15
-15 -5 -19 7 -2 11 -7 8 -10 -3 -3 -12 -2 -20 3 -11 7 -11 11 -1 24 8 9 19 16
25 16 6 0 3 -7 -7 -14z m-4 -42 c3 -4 0 -13 -8 -21 -8 -8 -15 -23 -15 -33 0
-29 -17 -33 -23 -5 -2 14 0 28 5 31 5 3 7 12 4 20 -5 14 24 20 37 8z m-3503
-46 c0 -19 -2 -20 -10 -8 -13 19 -13 30 0 30 6 0 10 -10 10 -22z m-226 -3 c3
-8 1 -15 -4 -15 -6 0 -10 7 -10 15 0 8 2 15 4 15 2 0 6 -7 10 -15z m186 -35
c13 -25 13 -25 -8 -6 -12 10 -19 23 -16 28 7 11 7 11 24 -22z m66 -24 c-2 -6
-5 -3 -5 7 -1 9 -5 17 -11 17 -5 0 -7 7 -3 17 5 14 8 12 15 -7 5 -13 7 -28 4
-34z m30 -11 c36 1 36 1 15 -16 -18 -15 -19 -19 -6 -26 13 -8 13 -11 -3 -23
-10 -8 -26 -16 -37 -18 -20 -3 -20 -2 0 13 19 16 19 16 -7 11 -23 -4 -28 -1
-28 14 0 13 5 17 15 14 8 -4 15 -1 15 7 0 7 -3 9 -6 6 -4 -3 -15 -2 -25 3 -11
6 -19 6 -21 0 -2 -6 -9 0 -17 12 -13 21 -13 22 3 9 15 -13 18 -12 23 7 5 20 6
20 24 3 12 -11 33 -17 55 -16z m-126 15 c0 -5 -5 -10 -11 -10 -5 0 -7 5 -4 10
3 6 8 10 11 10 2 0 4 -4 4 -10z m-140 -26 c0 -17 -16 -19 -26 -2 -5 7 -3 8 6
3 10 -6 12 -4 7 9 -4 10 -3 15 3 11 6 -3 10 -13 10 -21z m170 -34 c0 -5 -2
-10 -4 -10 -3 0 -8 5 -11 10 -3 6 -1 10 4 10 6 0 11 -4 11 -10z m-140 -40 c0
-5 -2 -10 -4 -10 -3 0 -8 5 -11 10 -3 6 -1 10 4 10 6 0 11 -4 11 -10z m10 -34
c0 -2 -8 -10 -17 -17 -16 -13 -17 -12 -4 4 13 16 21 21 21 13z m-886 -342 c5
-14 4 -15 -9 -4 -17 14 -19 20 -6 20 5 0 12 -7 15 -16z m1911 -2418 c174 -46
281 -181 293 -368 5 -92 -9 -162 -51 -242 -143 -271 -458 -319 -677 -103 -34
34 -73 83 -86 109 -53 104 -51 285 5 404 38 81 122 165 193 192 64 25 243 30
323 8z"/>
<path d="M6312 13186 c-134 -44 -212 -171 -212 -345 0 -154 36 -238 135 -314
71 -55 125 -77 205 -84 112 -9 198 21 288 102 89 80 128 200 111 338 -16 130
-76 210 -204 273 -67 33 -82 36 -176 40 -72 3 -117 0 -147 -10z"/>
<path d="M6000 12175 c-50 -10 -250 -33 -297 -34 -13 -1 -23 -5 -23 -10 0 -6
19 -8 43 -7 23 2 132 9 242 15 210 12 248 18 205 31 -24 8 -140 11 -170 5z"/>
<path d="M615 7034 c-100 -16 -189 -64 -229 -124 -57 -86 -88 -247 -66 -339
26 -111 131 -222 246 -262 76 -27 182 -27 255 0 69 26 146 94 184 162 29 52
30 59 30 174 0 102 -4 129 -23 177 -33 82 -109 162 -178 187 -55 21 -164 33
-219 25z"/>
<path d="M6322 1010 c-131 -28 -210 -149 -220 -336 -7 -155 37 -257 149 -339
77 -56 121 -70 234 -70 78 0 97 4 146 28 153 75 229 209 216 381 -13 170 -86
265 -243 317 -64 21 -222 32 -282 19z"/>
<path d="M11258 12859 c-15 -8 -16 -13 -5 -29 6 -11 17 -20 23 -20 6 0 17 -11
24 -25 7 -13 17 -22 21 -19 9 5 23 -15 24 -35 0 -8 9 -19 20 -25 11 -6 24 -17
28 -24 5 -7 18 -10 35 -6 19 4 23 3 13 -4 -15 -11 -8 -62 9 -62 5 0 6 7 3 17
-4 11 -3 14 5 9 7 -4 12 -14 12 -22 0 -8 5 -14 10 -14 6 0 8 11 6 25 -3 18 0
25 11 25 13 0 13 -3 3 -15 -10 -12 -10 -15 3 -15 9 0 19 -5 23 -12 5 -8 2 -9
-9 -5 -27 10 -20 -8 8 -23 23 -12 31 -33 12 -31 -4 1 -13 1 -21 1 -7 0 -16 10
-20 22 -4 19 -8 20 -18 10 -11 -11 -8 -17 12 -32 17 -13 20 -20 10 -20 -13 0
-13 -1 0 -10 8 -5 15 -13 15 -18 0 -6 12 -21 28 -36 15 -14 25 -23 22 -19 -3
3 3 15 12 25 16 18 16 18 -3 12 -17 -6 -16 -4 4 15 25 25 28 32 10 29 -7 -2
-12 3 -10 10 1 7 -5 21 -14 30 -11 10 -13 17 -5 20 6 2 9 7 6 12 -3 4 2 10 10
14 8 3 15 0 15 -6 0 -6 3 -8 7 -5 3 4 12 2 20 -4 8 -7 13 -8 13 -1 0 5 -8 13
-17 16 -14 6 -15 9 -4 16 8 4 11 15 8 23 -4 11 -2 14 9 10 12 -4 14 0 8 22 -6
25 -5 28 15 22 11 -3 19 -1 15 4 -3 5 0 9 6 9 6 0 8 5 4 11 -5 8 -9 8 -14 -1
-6 -9 -9 -9 -15 0 -9 15 -3 21 24 23 11 1 21 7 21 14 0 18 0 19 10 52 8 29 7
30 -33 35 -92 11 -392 15 -409 5z m422 -78 c0 -5 -7 -11 -14 -14 -10 -4 -13
-1 -9 9 6 15 23 19 23 5z m-60 -66 c0 -2 -9 -3 -19 -2 -11 0 -18 5 -15 9 4 6
34 0 34 -7z m-53 -21 c-3 -3 -12 -4 -19 -1 -8 3 -5 6 6 6 11 1 17 -2 13 -5z
m30 -46 c-3 -8 -6 -5 -6 6 -1 11 2 17 5 13 3 -3 4 -12 1 -19z m-31 -118 c0
-12 -4 -16 -9 -11 -5 5 -6 14 -3 20 10 15 12 14 12 -9z"/>
<path d="M12679 12541 c-19 -7 -177 -186 -254 -286 -29 -38 -91 -111 -136
-161 -46 -50 -127 -142 -180 -205 -101 -119 -147 -170 -252 -279 -132 -137
-257 -287 -257 -306 0 -7 8 -13 18 -16 30 -7 1069 -1 1081 6 13 8 16 1242 4
1249 -5 3 -15 2 -24 -2z"/>
<path d="M11210 12129 c-41 -5 -149 -18 -240 -29 -91 -10 -203 -22 -250 -25
-47 -3 -150 -12 -230 -20 -133 -13 -310 -23 -702 -41 -88 -4 -154 -11 -164
-18 -10 -8 -27 -66 -49 -172 -18 -87 -51 -233 -74 -324 -37 -150 -65 -249
-167 -590 -19 -63 -48 -169 -65 -235 -47 -186 -48 -189 -67 -213 -22 -29 -47
-33 -91 -15 -22 9 -37 11 -43 5 -7 -7 -3 -12 10 -16 11 -4 28 -18 37 -33 15
-22 17 -56 18 -234 1 -196 0 -208 -19 -226 -11 -10 -14 -14 -7 -9 8 5 13 4 13
-2 0 -6 -6 -15 -12 -19 -7 -4 -13 -14 -14 -20 -1 -7 -2 -20 -2 -28 -1 -8 -9
-15 -17 -15 -8 0 -16 -7 -16 -15 -1 -8 -3 -19 -4 -25 -1 -5 -3 -14 -4 -20 0
-5 -8 -10 -16 -10 -8 0 -20 -10 -26 -22 -7 -13 -15 -25 -18 -28 -7 -5 -41
-106 -41 -121 0 -15 20 -10 42 10 13 13 18 26 14 37 -5 14 -4 15 9 4 10 -8 15
-9 15 -1 0 6 12 14 26 17 16 4 23 12 20 20 -3 8 1 14 10 14 11 0 15 6 11 19
-3 13 0 18 11 17 22 -4 104 84 101 107 -1 7 -1 21 0 32 2 19 2 19 16 1 18 -23
39 -12 25 14 -7 13 -7 21 0 25 6 4 8 15 5 26 -4 10 1 29 9 41 9 13 16 16 16 9
0 -11 3 -11 14 -2 11 10 24 9 55 0 57 -17 88 -1 162 84 34 40 156 171 270 292
114 121 222 238 239 260 17 22 116 128 219 235 103 107 236 249 295 315 60 66
179 192 265 280 86 88 186 194 221 235 36 41 133 146 217 232 92 94 153 164
153 176 0 34 -33 38 -180 21z"/>
<path d="M7245 12060 c3 -5 21 -10 38 -9 31 1 31 1 7 9 -36 11 -52 11 -45 0z"/>
<path d="M7370 12026 c14 -8 41 -17 60 -21 19 -3 62 -15 95 -25 80 -26 157
-45 231 -59 34 -6 74 -18 90 -26 38 -18 114 -31 114 -18 0 16 -69 41 -180 64
-58 12 -112 28 -120 34 -8 7 -46 18 -85 25 -38 6 -92 18 -119 26 -27 8 -63 14
-80 14 l-31 -1 25 -13z"/>
<path d="M8985 11968 c-49 -29 -71 -65 -61 -101 10 -40 75 -101 124 -115 54
-17 97 3 119 56 19 46 4 97 -42 142 -43 42 -88 47 -140 18z"/>
<path d="M11083 11232 c-39 -43 -113 -129 -164 -192 -154 -191 -284 -336 -473
-527 -102 -102 -181 -190 -181 -200 0 -23 31 -22 143 6 45 12 117 30 160 40
116 29 207 54 372 101 36 10 84 23 108 29 23 6 59 15 80 21 104 26 215 50 236
50 26 0 56 28 56 53 0 9 -22 83 -49 164 -27 82 -58 180 -69 218 -69 240 -101
316 -131 314 -9 0 -48 -35 -88 -77z"/>
<path d="M8650 10702 c0 -14 23 -32 41 -32 9 0 20 -7 23 -16 4 -9 9 -14 13
-10 9 8 -47 66 -64 66 -7 0 -13 -4 -13 -8z"/>
<path d="M8810 10610 c0 -5 7 -10 16 -10 8 0 12 5 9 10 -3 6 -10 10 -16 10 -5
0 -9 -4 -9 -10z"/>
<path d="M8870 10570 c0 -5 7 -10 15 -10 8 0 15 5 15 10 0 6 -7 10 -15 10 -8
0 -15 -4 -15 -10z"/>
<path d="M9000 10496 c0 -7 8 -16 18 -20 9 -3 24 -9 32 -12 8 -4 4 5 -9 20
-27 29 -41 33 -41 12z"/>
<path d="M12290 10408 c-186 -49 -270 -72 -298 -84 -18 -8 -39 -14 -47 -14
-18 0 -208 -61 -215 -69 -3 -3 -12 -7 -20 -9 -8 -2 -32 -7 -55 -12 -22 -5 -58
-15 -80 -24 -22 -8 -49 -15 -60 -16 -11 0 -33 -9 -50 -20 -16 -11 -40 -20 -52
-20 -12 0 -29 -7 -37 -16 -9 -8 -28 -18 -43 -20 -15 -3 -35 -11 -43 -18 -21
-19 -55 -28 -112 -30 -48 -2 -71 -17 -62 -40 3 -7 -7 -13 -21 -14 -14 -1 -25
3 -25 8 0 5 7 7 15 4 8 -4 15 -1 15 4 0 6 -14 9 -32 6 -18 -3 -46 -5 -63 -6
-16 0 -41 -6 -55 -13 -14 -7 -52 -16 -85 -20 -33 -4 -78 -13 -100 -20 -22 -7
-63 -16 -91 -19 -29 -4 -65 -13 -80 -20 -16 -8 -58 -17 -94 -21 -36 -4 -73
-11 -82 -16 -10 -5 -40 -14 -68 -19 -56 -11 -100 -35 -100 -56 0 -15 123 -182
147 -199 7 -5 21 -22 31 -36 9 -15 30 -46 46 -70 16 -24 37 -50 48 -57 10 -7
18 -19 18 -27 0 -8 6 -18 13 -22 6 -4 21 -24 31 -43 11 -19 32 -46 47 -61 15
-14 30 -40 34 -58 3 -17 13 -31 21 -31 8 0 14 -8 14 -18 0 -10 7 -27 15 -37
28 -37 64 -95 59 -95 -3 0 3 -13 13 -30 9 -16 21 -30 25 -30 4 0 8 -6 8 -14 0
-7 7 -19 15 -26 8 -7 12 -16 10 -21 -3 -4 8 -23 25 -42 16 -19 30 -41 30 -49
0 -8 9 -23 20 -33 11 -10 20 -26 20 -35 0 -9 8 -25 18 -36 23 -27 40 -54 52
-84 25 -58 96 -196 105 -202 6 -4 11 -12 11 -18 1 -5 2 -14 3 -20 2 -21 30 -8
57 27 41 54 81 117 89 142 3 11 11 21 16 21 5 0 9 5 9 10 0 6 8 22 17 37 10
14 18 32 19 39 1 7 11 26 23 42 11 16 18 32 14 35 -3 4 6 16 20 28 15 11 27
26 27 34 0 7 11 26 24 41 33 38 156 211 156 219 0 3 16 27 35 52 19 25 35 51
35 58 0 6 9 20 20 30 11 10 20 22 20 26 0 5 11 25 25 46 14 21 30 45 35 53 5
8 21 32 35 53 14 21 25 43 25 48 0 6 8 23 18 37 23 36 38 60 62 102 11 19 29
49 40 65 11 17 36 63 56 103 20 39 40 74 44 77 4 3 11 17 15 32 3 16 21 51 39
78 19 28 37 61 41 74 4 14 23 48 41 77 19 30 38 64 43 76 5 13 32 63 60 111
67 116 67 132 1 115z m-983 -413 c-9 -19 -13 -21 -17 -9 -5 14 -7 14 -19 0 -7
-9 -18 -16 -23 -16 -14 0 -4 25 10 26 7 1 15 3 20 4 4 1 10 2 15 1 4 0 7 4 7
9 0 6 4 10 9 10 5 0 4 -11 -2 -25z m-77 5 c0 -5 -2 -10 -4 -10 -3 0 -8 5 -11
10 -3 6 -1 10 4 10 6 0 11 -4 11 -10z m-46 -62 c-3 -4 -11 -8 -17 -8 -7 0 -6
4 3 10 12 8 12 10 -5 10 -16 0 -17 2 -5 10 15 9 33 -7 24 -22z m60 -19 c-6
-11 -24 -2 -24 11 0 5 7 7 15 4 8 -4 12 -10 9 -15z m6 -51 c0 -4 -7 -8 -15 -8
-8 0 -15 4 -15 8 0 5 7 9 15 9 8 0 15 -4 15 -9z m80 2 c0 -5 -7 -7 -15 -4 -8
4 -15 8 -15 10 0 2 7 4 15 4 8 0 15 -4 15 -10z m-135 -19 c3 -5 2 -12 -3 -15
-5 -3 -9 1 -9 9 0 17 3 19 12 6z m95 -6 c0 -2 -9 -9 -20 -15 -16 -9 -18 -8
-14 5 5 13 34 22 34 10z m-56 -40 c-4 -8 -11 -12 -17 -8 -8 5 -7 8 1 11 7 2 9
9 6 14 -4 7 -2 8 4 4 6 -4 9 -13 6 -21z m200 -1 c3 -8 2 -12 -4 -9 -6 3 -10
10 -10 16 0 14 7 11 14 -7z m33 -16 c-3 -7 -5 -2 -5 12 0 14 2 19 5 13 2 -7 2
-19 0 -25z m-187 12 c0 -5 -2 -10 -4 -10 -3 0 -8 5 -11 10 -3 6 -1 10 4 10 6
0 11 -4 11 -10z m114 -5 c-4 -8 -8 -15 -10 -15 -2 0 -4 7 -4 15 0 8 4 15 10
15 5 0 7 -7 4 -15z m-134 -52 c-11 -17 -11 -17 -6 0 3 10 6 24 7 30 0 9 2 9 5
0 3 -7 0 -20 -6 -30z m87 15 c-3 -8 -6 -5 -6 6 -1 11 2 17 5 13 3 -3 4 -12 1
-19z m-160 -10 c-3 -8 -6 -5 -6 6 -1 11 2 17 5 13 3 -3 4 -12 1 -19z m167 -24
c3 -8 2 -12 -4 -9 -6 3 -10 10 -10 16 0 14 7 11 14 -7z m-207 -16 c-3 -8 -6
-5 -6 6 -1 11 2 17 5 13 3 -3 4 -12 1 -19z m151 -26 c-5 -2 -5 -8 -2 -14 4 -6
1 -9 -6 -6 -7 2 -14 16 -16 30 -2 25 -1 25 15 10 9 -9 13 -19 9 -20z m-33 -32
c3 -6 -1 -7 -9 -4 -18 7 -21 14 -7 14 6 0 13 -4 16 -10z m88 -19 c3 -13 1 -18
-9 -14 -7 2 -10 11 -7 19 7 19 10 18 16 -5z m-56 -47 c-3 -3 -12 -4 -19 -1 -8
3 -5 6 6 6 11 1 17 -2 13 -5z m-67 -78 c0 -2 -7 -6 -15 -10 -8 -3 -15 -1 -15
4 0 6 7 10 15 10 8 0 15 -2 15 -4z m-115 -24 c-3 -3 -11 0 -18 7 -9 10 -8 11
6 5 10 -3 15 -9 12 -12z"/>
<path d="M1599 9858 c-6 -24 -35 -92 -64 -153 -29 -60 -63 -132 -75 -160 -13
-27 -57 -120 -99 -205 -42 -85 -75 -162 -74 -170 1 -8 -7 -26 -18 -41 -10 -15
-19 -33 -19 -41 0 -7 -9 -31 -20 -53 -10 -22 -25 -55 -32 -72 -7 -18 -16 -33
-20 -33 -5 0 -8 -5 -8 -12 0 -6 -14 -40 -31 -75 -29 -59 -35 -86 -30 -136 1
-15 4 -16 22 -7 11 6 23 19 26 28 3 9 16 42 29 72 13 30 58 143 99 250 77 195
269 601 330 695 18 28 39 67 46 88 13 36 12 40 -6 53 -31 23 -44 16 -56 -28z"/>
<path d="M9713 9653 c-23 -4 -33 -33 -13 -33 6 0 10 -6 9 -12 -4 -24 21 -70
41 -75 11 -3 22 -15 26 -26 7 -22 28 -47 41 -49 21 -2 31 -11 27 -22 -3 -7 4
-20 15 -30 11 -10 18 -23 15 -27 -3 -5 0 -9 5 -9 6 0 11 -15 11 -34 0 -19 5
-38 12 -42 7 -5 9 -2 5 9 -4 11 -2 14 9 10 19 -7 18 -20 -3 -32 -17 -10 -17
-12 0 -25 12 -10 14 -15 6 -18 -7 -2 -9 -10 -5 -17 5 -7 14 -10 22 -7 9 4 14
-2 14 -15 0 -15 5 -19 16 -15 9 3 17 6 20 6 2 0 2 6 0 13 -1 6 -1 9 1 5 2 -4
10 -6 16 -4 7 1 8 1 4 -2 -11 -6 13 -32 29 -32 8 0 14 -5 14 -11 0 -6 11 -20
24 -30 14 -11 28 -28 31 -39 4 -11 11 -17 17 -14 6 4 8 3 5 -3 -7 -11 27 -66
35 -57 3 3 12 -12 18 -33 7 -21 21 -49 31 -62 11 -13 19 -31 19 -40 0 -9 7
-29 16 -46 9 -17 13 -40 9 -55 -6 -23 -5 -24 8 -6 10 13 14 15 15 5 8 -64 16
-89 28 -89 14 0 18 -12 15 -39 -2 -8 2 -10 10 -5 9 5 10 2 6 -9 -4 -11 -1 -17
8 -17 8 0 15 -8 15 -18 0 -10 6 -24 13 -31 10 -11 9 -12 -3 -6 -13 8 -13 6 -2
-8 8 -9 11 -21 7 -26 -4 -7 1 -8 11 -4 13 5 15 3 9 -7 -5 -8 1 -20 16 -32 13
-11 17 -17 9 -13 -8 4 -6 -1 4 -9 13 -11 15 -16 6 -16 -10 0 -10 -4 2 -17 8
-10 18 -26 22 -37 4 -11 12 -16 22 -12 8 3 13 2 10 -3 -3 -5 1 -14 9 -21 8 -7
12 -16 9 -21 -3 -5 0 -9 6 -9 6 0 9 -4 6 -9 -3 -5 1 -12 10 -15 8 -3 12 -10 9
-16 -3 -6 1 -13 10 -16 13 -6 14 -8 3 -15 -10 -7 -11 -9 0 -9 7 0 11 -4 8 -9
-3 -5 5 -20 18 -34 15 -16 23 -36 22 -51 -2 -18 3 -27 15 -31 11 -4 19 -13 19
-21 0 -8 5 -14 10 -14 6 0 10 -8 10 -18 0 -10 5 -23 12 -30 7 -7 8 -12 4 -12
-5 0 3 -9 17 -20 14 -12 24 -27 21 -34 -3 -7 2 -18 10 -25 13 -11 33 -93 28
-114 -1 -5 2 -6 8 -2 6 3 10 -3 10 -15 0 -11 7 -23 15 -26 8 -4 12 -10 9 -15
-6 -10 13 -39 25 -39 16 0 10 81 -9 115 -11 19 -20 46 -20 59 0 13 -7 29 -14
36 -8 6 -20 36 -26 66 -6 29 -16 56 -21 59 -5 4 -9 14 -9 23 0 10 -8 34 -19
54 -10 20 -21 52 -25 70 -6 33 -14 53 -55 138 -11 25 -21 49 -21 54 0 5 -9 30
-21 55 -11 25 -28 64 -38 86 -68 156 -156 310 -292 515 -53 80 -113 171 -133
203 -35 56 -54 82 -155 214 -59 76 -170 173 -196 172 -11 -1 -30 -4 -42 -6z
m234 -389 c-3 -3 -12 -4 -19 -1 -8 3 -5 6 6 6 11 1 17 -2 13 -5z"/>
<path d="M9880 9250 c0 -5 5 -10 10 -10 6 0 10 5 10 10 0 6 -4 10 -10 10 -5 0
-10 -4 -10 -10z"/>
<path d="M1770 9067 c-28 -14 -37 -49 -22 -81 6 -12 13 -29 16 -39 5 -17 7
-17 28 -1 38 29 89 96 86 113 -4 21 -74 26 -108 8z"/>
<path d="M528 8853 c-38 -44 -49 -92 -25 -112 10 -8 18 -4 35 18 17 24 52 95
52 107 0 12 -49 1 -62 -13z"/>
<path d="M13303 8211 c-598 -5 -755 -9 -765 -19 -16 -16 -26 -144 -27 -352 -1
-128 2 -160 15 -178 l16 -23 570 2 c521 2 571 0 586 -15 16 -16 17 -138 17
-1666 0 -1339 2 -1651 13 -1662 10 -10 80 -14 292 -16 l280 -3 26 26 c24 24
26 31 20 88 -13 140 -16 842 -9 1994 7 1135 9 1224 25 1239 16 16 60 17 580
15 l563 -3 20 22 c19 20 20 39 23 253 2 127 1 241 -3 254 -3 12 -14 27 -24 33
-25 13 -1186 18 -2218 11z"/>
<path d="M25964 8180 c-45 -4 -86 -10 -93 -14 -6 -4 -49 -11 -95 -16 -47 -5
-106 -16 -133 -24 -26 -8 -70 -23 -98 -31 -27 -9 -71 -20 -97 -25 -27 -5 -58
-16 -70 -24 -12 -9 -29 -16 -38 -16 -8 0 -37 -12 -65 -25 -27 -14 -56 -25 -62
-25 -7 0 -13 -4 -13 -9 0 -5 -13 -14 -30 -21 -16 -7 -30 -16 -30 -21 0 -4 -10
-11 -21 -14 -40 -13 -259 -243 -259 -272 0 -6 -8 -21 -19 -34 -10 -13 -22 -35
-26 -49 -4 -14 -13 -32 -21 -40 -7 -9 -14 -30 -16 -48 -1 -18 -5 -32 -9 -32
-11 0 -22 -42 -25 -98 -1 -29 -8 -60 -15 -68 -10 -13 -6 -18 13 -15 9 1 -3
-31 -17 -45 -7 -7 -12 -66 -14 -153 -2 -119 0 -141 12 -141 12 0 15 -14 15
-62 -1 -107 2 -126 17 -141 11 -12 12 -16 2 -20 -9 -3 -8 -12 6 -35 9 -16 17
-49 17 -72 0 -48 16 -84 34 -77 9 4 11 -2 8 -18 -2 -12 1 -26 7 -29 5 -4 8
-14 5 -24 -5 -13 -4 -14 4 -3 15 20 35 3 28 -25 -5 -17 -1 -27 14 -36 11 -7
20 -17 20 -21 0 -15 142 -142 155 -139 7 1 15 -7 18 -19 3 -12 10 -18 16 -14
6 3 11 2 11 -3 0 -5 8 -13 18 -16 17 -6 26 -11 93 -53 20 -13 46 -23 57 -23
11 0 22 -5 24 -11 2 -6 31 -18 63 -25 33 -7 85 -20 115 -29 30 -8 69 -15 87
-15 18 0 75 -6 126 -14 65 -11 210 -16 499 -18 278 -3 410 -7 420 -15 7 -6 45
-18 83 -26 71 -14 122 -37 163 -72 25 -21 108 -137 103 -144 -1 -2 3 -7 10
-11 19 -12 28 -140 22 -330 l-4 -174 -41 -78 c-22 -42 -58 -98 -81 -123 -37
-43 -162 -135 -183 -135 -5 -1 -27 -9 -49 -20 -22 -11 -53 -20 -70 -20 -16 0
-57 -7 -90 -14 -93 -22 -147 -27 -325 -31 -250 -5 -587 20 -740 56 -25 6 -73
16 -108 23 -34 8 -68 18 -75 24 -6 5 -34 16 -62 25 -81 25 -130 45 -222 88
-47 22 -91 38 -99 35 -22 -8 -26 -61 -22 -294 3 -206 4 -223 23 -240 29 -27
154 -74 245 -92 25 -5 70 -16 100 -24 103 -28 245 -55 317 -60 40 -3 105 -11
145 -18 50 -9 187 -13 428 -12 300 0 366 3 423 17 38 9 84 17 103 17 103 0
408 117 543 208 46 31 211 190 211 204 0 4 18 34 40 65 22 32 40 63 40 70 0 6
6 18 13 25 22 22 59 139 68 213 5 38 11 80 14 93 3 12 7 32 10 45 3 12 6 121
7 242 0 171 -3 235 -16 288 -8 37 -18 80 -21 95 -12 72 -107 257 -159 313
-110 117 -188 165 -341 213 -49 15 -105 34 -123 42 -18 8 -51 16 -75 20 -23 3
-72 12 -110 20 -96 20 -125 22 -482 29 -176 3 -367 10 -425 16 -58 5 -137 12
-177 16 -57 5 -90 15 -155 47 -89 45 -128 86 -149 161 -6 22 -21 65 -31 95
-17 45 -20 81 -20 195 0 155 1 165 20 181 8 5 18 32 23 58 10 52 55 115 137
187 74 65 258 154 382 184 30 7 69 18 86 23 118 37 850 30 925 -9 9 -4 41 -13
70 -18 159 -29 322 -90 461 -172 28 -17 57 -28 64 -25 11 4 14 54 14 260 0
227 -2 256 -18 276 -18 23 -107 52 -231 75 -40 8 -78 18 -85 23 -6 5 -41 12
-77 16 -37 3 -79 13 -95 21 -16 7 -69 17 -119 20 -107 7 -137 11 -190 26 -47
12 -543 19 -661 9z m-1124 -860 c0 -5 -5 -10 -11 -10 -5 0 -7 5 -4 10 3 6 8
10 11 10 2 0 4 -4 4 -10z m2 -91 c5 -4 3 -9 -6 -12 -13 -5 -16 1 -15 31 1 28
3 31 6 12 3 -14 9 -28 15 -31z m-49 4 c-4 -11 -3 -14 5 -9 17 10 15 0 -4 -18
-14 -15 -13 -19 7 -47 15 -22 18 -34 10 -42 -8 -8 -7 -14 1 -24 13 -16 7 -25
-10 -15 -6 5 -14 19 -16 32 -2 14 -5 25 -6 25 -7 0 -7 66 0 70 6 4 8 11 5 16
-4 5 -3 14 0 19 10 16 15 12 8 -7z m47 -68 c5 3 10 -1 10 -10 0 -30 -33 -12
-36 20 -3 28 -3 28 6 7 5 -13 14 -20 20 -17z m-84 -42 c-7 -7 -26 7 -26 19 0
6 6 6 15 -2 9 -7 13 -15 11 -17z m107 2 c-3 -9 -8 -14 -10 -11 -3 3 -2 9 2 15
9 16 15 13 8 -4z m-98 -45 c9 -16 20 -30 26 -30 6 0 7 5 4 10 -8 12 5 13 23 1
11 -7 10 -9 -3 -15 -9 -3 -13 -10 -10 -16 3 -5 1 -10 -5 -10 -6 0 -8 -5 -4
-11 4 -7 1 -10 -7 -7 -8 3 -13 12 -11 22 3 18 -9 21 -24 6 -6 -6 -10 6 -12 35
-1 25 0 45 3 45 2 0 11 -13 20 -30z m109 -46 c4 -10 1 -14 -6 -12 -15 5 -23
28 -10 28 5 0 13 -7 16 -16z m-128 -49 c-5 -18 -2 -25 9 -25 8 0 15 4 15 9 0
5 9 7 20 4 27 -7 25 -17 -5 -31 -17 -8 -25 -8 -25 -1 0 6 -8 8 -18 5 -14 -5
-17 -1 -17 17 1 24 12 47 22 47 3 0 2 -11 -1 -25z m83 -24 c1 -10 -3 -9 -13 4
-8 11 -11 26 -8 34 4 12 7 11 13 -5 4 -10 8 -25 8 -33z m-12 -43 c-3 -8 -6 -5
-6 6 -1 11 2 17 5 13 3 -3 4 -12 1 -19z m-32 -66 c2 -30 -12 -28 -18 3 -2 15
0 24 6 22 6 -2 11 -13 12 -25z m73 -17 c-3 -3 -9 2 -12 12 -6 14 -5 15 5 6 7
-7 10 -15 7 -18z m-68 -25 c0 -5 -5 -10 -11 -10 -5 0 -7 5 -4 10 3 6 8 10 11
10 2 0 4 -4 4 -10z m27 -26 c-3 -3 -12 -4 -19 -1 -8 3 -5 6 6 6 11 1 17 -2 13
-5z m10 -94 c1 -11 -2 -20 -8 -20 -10 0 -12 23 -2 33 9 9 9 10 10 -13z m73
-300 c0 -5 -5 -10 -11 -10 -5 0 -7 5 -4 10 3 6 8 10 11 10 2 0 4 -4 4 -10z"/>
<path d="M19490 7194 c-179 -21 -395 -118 -566 -255 -61 -49 -106 -78 -119
-77 -22 3 -38 33 -54 99 -17 75 -50 155 -75 182 -33 35 -114 50 -252 45 -92
-2 -117 -6 -131 -21 -17 -17 -18 -86 -18 -1330 -1 -722 -5 -1357 -9 -1412 -12
-148 -31 -138 265 -136 268 1 322 6 341 29 10 12 12 83 10 321 -2 168 2 497 8
731 7 234 15 550 18 704 l7 278 50 44 c59 52 289 169 422 214 74 26 111 32
183 34 56 1 95 7 102 14 10 10 14 78 16 255 4 290 7 280 -94 283 -38 1 -85 0
-104 -2z"/>
<path d="M16305 7183 c-279 -34 -513 -139 -698 -312 -157 -148 -268 -329 -337
-553 -99 -321 -99 -881 1 -1188 25 -76 93 -215 145 -297 48 -76 221 -245 307
-301 177 -115 401 -190 675 -229 173 -24 599 -24 787 1 201 27 392 73 415 101
9 11 10 74 5 244 -9 283 -4 272 -127 248 -266 -52 -734 -79 -998 -57 -378 31
-585 192 -651 507 -22 104 -19 141 13 169 19 18 57 19 687 26 1264 13 1161 10
1177 32 24 33 20 456 -7 621 -51 326 -110 465 -269 638 -221 240 -539 359
-945 355 -82 0 -163 -3 -180 -5z m311 -498 c221 -29 356 -111 433 -264 34 -66
61 -176 68 -276 5 -81 3 -93 -15 -115 l-20 -25 -604 -3 c-601 -2 -605 -2 -631
19 -32 24 -33 43 -12 151 33 172 74 257 170 346 128 120 232 159 486 181 8 0
64 -6 125 -14z"/>
<path d="M20166 7180 c-16 -5 -33 -15 -37 -22 -5 -7 -6 -652 -4 -1432 3 -1152
6 -1421 17 -1427 7 -5 139 -9 294 -9 215 0 284 3 298 13 17 13 18 63 17 1019
l-2 1006 32 36 c17 20 35 36 40 36 4 0 27 13 51 29 45 30 230 127 283 148 101
40 152 56 250 79 64 16 118 35 130 46 19 17 20 32 20 234 0 215 0 216 -24 235
-51 41 -290 15 -448 -49 -109 -45 -189 -93 -305 -186 -58 -47 -113 -86 -122
-86 -23 0 -46 41 -56 103 -13 80 -60 186 -93 211 -25 19 -44 21 -170 23 -78 1
-155 -2 -171 -7z"/>
<path d="M22525 7169 c-60 -5 -164 -18 -230 -28 -66 -11 -142 -23 -170 -26
-70 -9 -157 -34 -175 -51 -12 -12 -15 -40 -13 -142 5 -235 15 -380 28 -399 12
-17 16 -16 67 4 128 52 257 87 468 128 108 21 438 31 535 16 196 -30 271 -55
361 -122 118 -87 143 -154 144 -376 0 -120 -2 -135 -20 -153 -24 -24 -6 -24
-180 1 -121 17 -195 20 -440 20 -275 0 -303 -2 -420 -25 -141 -29 -190 -46
-340 -119 -92 -45 -116 -62 -195 -141 -97 -98 -156 -193 -195 -317 -44 -138
-48 -411 -9 -566 27 -107 67 -182 158 -291 189 -229 608 -339 1037 -272 196
31 326 70 523 159 63 28 127 51 142 51 22 0 37 -15 97 -102 39 -57 82 -110 94
-118 34 -22 339 -28 357 -7 9 12 12 236 11 1024 0 554 -3 1033 -6 1063 -8 75
-39 214 -64 279 -92 239 -336 405 -700 476 -69 13 -177 29 -240 35 -133 12
-465 11 -625 -1z m660 -1579 c255 -34 336 -58 357 -107 7 -18 12 -95 12 -218
0 -215 -3 -227 -76 -290 -114 -98 -461 -195 -700 -195 -133 0 -297 48 -344
101 -58 66 -95 179 -96 289 -2 158 69 261 234 342 84 41 132 55 268 78 65 11
263 11 345 0z"/>
<path d="M28955 7128 c-44 -11 -100 -26 -125 -35 -25 -8 -63 -18 -85 -22 -22
-4 -49 -13 -60 -19 -11 -6 -36 -18 -55 -27 -57 -26 -120 -67 -168 -113 -15
-13 -41 -35 -59 -49 -48 -37 -223 -264 -223 -289 0 -3 -11 -29 -25 -58 -13
-28 -26 -61 -28 -71 -2 -11 -8 -29 -15 -41 -6 -12 -13 -44 -16 -72 -3 -28 -12
-62 -20 -74 -8 -13 -16 -45 -17 -73 -1 -27 -9 -68 -17 -90 -19 -52 -29 -480
-14 -575 28 -172 43 -246 51 -261 5 -9 13 -34 16 -55 18 -109 91 -296 140
-360 14 -18 25 -37 25 -42 0 -16 110 -130 178 -184 37 -29 78 -63 92 -75 14
-13 29 -23 34 -23 5 0 17 -6 25 -14 9 -7 43 -23 76 -36 33 -12 80 -30 105 -40
84 -32 175 -58 225 -65 28 -3 84 -12 125 -20 193 -35 455 -41 815 -19 111 7
359 53 418 77 l37 16 0 123 c-1 163 -15 307 -33 325 -12 12 -27 11 -108 -7
-52 -12 -128 -26 -169 -31 -67 -8 -189 -27 -230 -36 -42 -8 -650 -1 -685 8
-22 6 -65 17 -95 24 -176 43 -288 124 -400 292 -50 75 -68 117 -94 223 -35
138 -33 167 9 213 l26 27 927 0 c881 -1 927 0 940 17 11 14 12 43 8 123 -3 58
-9 155 -12 215 -8 167 -22 334 -29 345 -7 11 -12 41 -20 113 -5 47 -44 175
-55 182 -4 3 -22 33 -38 67 -17 35 -39 70 -49 79 -10 9 -38 42 -63 74 -48 61
-178 169 -245 202 -35 18 -88 39 -205 82 -19 8 -60 20 -90 27 -30 8 -75 19
-100 26 -29 8 -135 13 -295 14 -219 2 -260 -1 -330 -18z m580 -433 c80 -16
223 -106 276 -174 19 -25 43 -63 54 -83 11 -21 23 -38 27 -38 5 0 8 -13 8 -29
0 -17 8 -36 18 -43 20 -15 22 -28 26 -168 3 -101 -4 -154 -22 -172 -9 -9 -82
-10 -905 -9 l-419 1 -29 30 c-28 28 -30 34 -26 91 2 33 9 64 16 68 6 4 16 36
22 72 6 35 16 71 23 79 7 8 17 27 22 42 22 66 264 287 316 288 7 0 33 10 58
21 25 11 74 25 110 29 67 9 372 5 425 -5z m-1375 -585 c0 -5 -5 -10 -11 -10
-5 0 -7 5 -4 10 3 6 8 10 11 10 2 0 4 -4 4 -10z m60 -121 c0 -14 -16 -11 -29
5 -10 12 -8 13 8 9 12 -3 21 -9 21 -14z m-50 -25 c0 -8 -5 -12 -10 -9 -6 4 -8
11 -5 16 9 14 15 11 15 -7z m143 -9 c-3 -9 -8 -14 -10 -11 -3 3 -2 9 2 15 9
16 15 13 8 -4z"/>
<path d="M32085 7135 c-33 -8 -89 -19 -125 -25 -36 -6 -82 -18 -103 -26 -20
-8 -47 -14 -60 -14 -12 -1 -40 -9 -62 -20 -22 -11 -48 -19 -57 -20 -20 0 -188
-86 -203 -103 -15 -18 -73 -57 -83 -57 -10 0 -166 -151 -195 -188 -9 -12 -19
-31 -20 -42 -2 -10 -11 -28 -20 -38 -10 -11 -20 -29 -22 -42 -2 -13 -12 -31
-21 -41 -10 -11 -14 -19 -9 -19 4 0 -4 -15 -18 -34 -15 -19 -29 -48 -32 -66
-3 -18 -12 -39 -20 -47 -8 -8 -15 -22 -16 -31 -2 -68 -11 -117 -21 -123 -7 -4
-13 -37 -15 -76 -1 -37 -5 -85 -8 -105 -3 -21 0 -40 5 -43 7 -4 2 -14 -11 -26
-22 -19 -23 -27 -24 -194 -1 -139 1 -175 12 -175 7 0 13 -9 13 -20 0 -19 1
-19 18 -2 24 23 24 44 0 36 -10 -3 -18 0 -18 6 0 6 5 8 10 5 6 -3 10 -1 10 4
0 6 -6 11 -14 11 -10 0 -14 9 -12 27 4 34 21 41 30 11 6 -22 7 -22 20 7 7 17
10 34 5 39 -4 5 -4 17 1 26 10 18 -8 80 -22 80 -4 0 -8 5 -8 11 0 6 9 8 20 4
12 -4 27 -1 35 5 11 9 15 9 15 1 0 -6 5 -11 10 -11 6 0 5 8 -2 19 -9 15 -16
17 -30 10 -14 -7 -18 -6 -18 6 0 9 7 18 15 21 12 5 12 10 3 27 -8 15 -8 22 0
25 6 2 8 10 5 18 -3 8 1 21 8 30 7 9 14 24 14 33 5 63 5 66 14 52 6 -9 11 -10
15 -2 4 6 5 15 2 20 -4 5 -1 11 5 13 6 2 12 19 13 39 1 19 6 41 11 49 12 20
46 -50 34 -72 -13 -24 -11 -27 11 -21 11 3 17 9 14 14 -3 5 3 6 12 2 12 -4 15
-3 10 5 -4 7 -1 12 7 12 20 0 32 -90 15 -102 -9 -6 -7 -8 7 -7 44 3 58 -1 47
-14 -7 -8 -6 -19 3 -37 8 -14 14 -21 15 -16 0 5 7 3 15 -4 10 -8 12 -17 6 -29
-5 -9 -11 -27 -12 -41 -2 -14 -8 -28 -13 -31 -5 -4 -5 -15 -1 -25 6 -15 9 -16
12 -4 2 8 14 20 26 25 19 9 22 8 22 -11 0 -17 -3 -20 -17 -13 -13 7 -15 5 -10
-13 3 -14 1 -19 -6 -14 -7 4 -12 1 -12 -10 0 -14 -2 -15 -17 -3 -10 7 -15 10
-11 5 4 -5 3 -17 -2 -27 -6 -11 -6 -20 -1 -23 5 -4 12 0 14 6 4 8 6 7 6 -4 1
-9 -3 -20 -9 -23 -13 -8 -13 -25 1 -25 5 0 8 4 5 9 -4 5 3 7 14 4 20 -5 20 -6
-1 -24 -12 -11 -29 -19 -37 -19 -11 0 -12 -3 -2 -15 6 -8 8 -20 4 -27 -6 -9
-10 -5 -14 12 -4 14 -2 31 3 38 5 7 7 15 3 19 -3 4 -13 -2 -20 -13 -8 -10 -11
-23 -6 -28 5 -5 6 -15 2 -24 -5 -13 -7 -12 -13 4 -7 18 -8 18 -8 0 -1 -12 -6
-16 -17 -12 -9 3 -12 2 -9 -4 4 -6 14 -9 23 -8 11 2 16 -3 15 -15 0 -11 4 -16
11 -14 7 3 13 -1 13 -9 0 -19 -7 -18 -33 7 l-22 21 -7 -21 c-3 -12 -12 -27
-19 -33 -7 -7 -15 -27 -19 -45 -5 -25 -3 -31 7 -27 8 3 17 1 21 -5 3 -6 -2
-11 -12 -12 -16 0 -16 -1 2 -9 18 -8 17 -9 -7 -9 -18 -1 -26 -5 -23 -14 3 -6
-4 -18 -16 -25 -18 -11 -23 -10 -39 8 -18 21 -18 21 -17 -14 1 -36 21 -56 31
-30 3 8 13 14 21 14 9 0 13 4 10 10 -3 6 1 7 10 4 12 -5 13 -10 5 -20 -7 -7
-18 -10 -26 -7 -8 3 -14 2 -13 -3 5 -29 -1 -35 -23 -23 -13 7 -25 12 -28 11
-3 -1 -5 11 -5 26 0 15 -6 27 -12 28 -7 1 -20 2 -28 3 -9 0 -15 8 -13 17 2 10
-3 19 -9 21 -16 6 -17 -45 -3 -67 8 -13 10 -12 10 4 0 15 3 17 12 8 9 -9 8
-16 -6 -31 -15 -17 -15 -20 -1 -34 14 -14 14 -17 -2 -26 -17 -10 -17 -10 0
-11 17 0 19 -5 22 -75 2 -49 13 -75 31 -75 16 0 19 -16 4 -25 -7 -4 -7 -12 0
-25 5 -10 10 -32 10 -48 0 -17 6 -32 15 -36 10 -3 15 -19 15 -44 0 -36 28 -81
42 -67 3 3 3 -6 0 -20 -3 -20 5 -36 42 -75 25 -27 46 -54 46 -59 0 -14 51 -66
78 -81 20 -10 26 -9 38 7 7 10 14 13 14 6 0 -6 -5 -15 -11 -19 -13 -7 38 -64
58 -64 7 0 13 -4 13 -9 0 -5 12 -14 28 -20 15 -6 43 -20 62 -31 19 -11 43 -20
52 -20 10 0 18 -4 18 -8 0 -10 133 -65 170 -70 13 -2 50 -12 81 -22 35 -12 97
-21 168 -24 156 -7 466 10 518 28 23 8 62 18 87 21 25 4 50 13 56 20 6 7 33
19 61 25 27 7 52 16 55 21 12 20 57 8 88 -23 29 -29 33 -40 35 -94 1 -34 -5
-79 -14 -105 -9 -24 -21 -71 -26 -103 -6 -32 -19 -70 -29 -84 -11 -14 -20 -30
-20 -36 0 -24 -107 -124 -185 -174 -52 -32 -162 -70 -235 -81 -36 -6 -81 -15
-100 -20 -53 -17 -396 -14 -472 3 -35 8 -101 18 -148 21 -47 4 -117 15 -156
26 -38 10 -81 19 -95 19 -13 0 -65 13 -114 30 -72 23 -93 27 -103 17 -26 -27
-43 -419 -19 -450 15 -19 139 -57 186 -57 20 0 63 -7 97 -15 33 -8 132 -21
218 -30 87 -8 185 -19 219 -24 62 -9 420 -7 467 2 24 5 133 22 195 31 62 8
264 73 350 112 140 63 278 176 349 284 25 38 46 74 46 79 0 5 7 11 15 15 8 3
15 13 15 23 0 10 9 35 20 56 11 20 20 47 20 58 0 12 9 53 21 92 20 67 20 84
15 426 -4 196 -6 375 -6 399 1 31 -3 42 -15 42 -21 0 -20 46 1 58 12 7 13 11
5 16 -7 4 -19 2 -28 -6 -9 -7 -24 -12 -33 -10 -13 2 -17 -4 -18 -25 0 -53 -1
-55 -15 -42 -16 15 -19 46 -6 54 5 4 7 11 4 16 -4 5 1 9 9 9 13 0 14 4 4 25
-6 14 -15 25 -20 25 -5 0 -7 4 -4 8 2 4 1 14 -4 22 -7 11 -11 2 -16 -28 -6
-36 -10 -43 -25 -39 -21 6 -25 -10 -8 -33 9 -12 10 -12 5 3 -4 12 -2 17 6 15
22 -8 19 -24 -6 -36 -16 -7 -28 -8 -31 -2 -11 18 -26 10 -20 -10 5 -15 2 -20
-12 -20 -15 0 -16 -2 -3 -10 8 -5 11 -10 5 -10 -5 0 -3 -5 5 -10 13 -8 12 -10
-2 -10 -10 0 -18 5 -18 11 0 5 -5 7 -12 3 -7 -4 -8 -3 -4 5 10 16 -21 26 -39
11 -17 -14 -21 -35 -5 -25 6 3 7 -1 4 -9 -3 -9 -10 -13 -15 -10 -5 3 -9 -1 -9
-9 0 -8 -7 -20 -15 -27 -9 -8 -15 -9 -15 -2 0 6 5 14 10 17 16 10 12 28 -4 22
-10 -4 -13 -1 -9 9 6 17 23 19 24 2 1 -19 22 34 23 57 0 11 -7 21 -17 23 -15
3 -17 -1 -11 -22 4 -16 2 -26 -4 -26 -18 0 -24 18 -13 39 8 15 7 20 -5 25 -13
5 -15 2 -11 -14 3 -11 1 -20 -4 -20 -5 0 -9 -7 -9 -15 0 -8 -4 -15 -10 -15
-13 0 -13 37 1 45 6 5 4 12 -8 21 -27 20 -34 17 -21 -11 10 -21 9 -29 -5 -43
-16 -15 -17 -15 -17 0 0 9 5 20 10 23 6 4 8 11 4 16 -4 6 -10 6 -18 0 -7 -6
-15 -8 -19 -5 -3 3 -3 -3 -1 -13 8 -28 -32 -44 -69 -28 -15 6 -25 14 -22 17
11 11 -92 -11 -150 -32 -114 -41 -267 -59 -475 -55 -85 2 -182 8 -215 15 -57
10 -174 55 -185 70 -3 4 -19 14 -35 23 -88 45 -244 285 -260 402 -4 28 -12 55
-19 60 -15 13 -16 44 -19 365 -1 242 0 279 15 308 10 19 23 60 29 93 6 32 15
59 20 59 5 0 16 17 24 37 31 73 118 173 198 227 54 37 102 60 177 84 36 11 97
31 135 44 67 22 83 23 375 23 298 0 306 -1 345 -22 21 -13 44 -23 50 -23 21 0
39 -47 43 -110 2 -36 9 -69 15 -73 9 -6 9 -10 0 -14 -10 -3 -13 -47 -13 -169
0 -130 3 -164 13 -158 8 5 7 2 -2 -10 -10 -12 -13 -37 -11 -84 5 -128 5 -127
28 -130 25 -4 31 22 8 31 -18 7 -15 49 4 54 13 4 13 3 0 -6 -13 -9 -12 -11 3
-11 10 0 16 -4 12 -9 -3 -5 -1 -12 3 -15 5 -3 9 16 8 43 -1 32 -5 48 -14 48
-7 0 -11 -6 -8 -14 3 -7 1 -13 -4 -13 -6 0 -10 6 -11 13 0 6 -2 26 -4 42 -3
27 0 30 21 30 36 -2 45 -16 35 -52 -5 -17 -7 -34 -3 -37 11 -12 22 -6 22 13 0
10 8 22 18 26 16 7 16 8 -2 14 -16 6 -17 9 -4 22 10 9 12 21 7 34 -10 26 -11
55 -1 55 4 0 8 -12 9 -27 0 -14 9 -30 18 -35 15 -9 15 -11 -2 -24 -17 -14 -17
-15 5 -9 15 4 22 2 22 -7 1 -7 9 5 19 26 13 27 20 34 22 23 3 -13 6 -12 15 7
10 21 9 24 -5 19 -14 -4 -14 -3 -1 6 11 8 18 7 28 -6 11 -15 12 -15 12 5 0 12
5 22 10 22 6 0 10 8 11 18 0 14 2 14 9 -3 7 -17 9 -17 9 -3 1 16 -24 44 -75
83 -16 13 -16 14 -1 9 10 -4 17 -1 17 7 0 7 3 9 7 6 3 -4 12 -2 18 3 9 8 14 6
18 -4 4 -11 1 -13 -10 -9 -11 4 -14 2 -11 -8 3 -8 11 -13 18 -11 10 2 10 -1
-1 -14 -11 -14 -11 -16 0 -10 8 5 17 3 22 -5 6 -9 7 -1 3 24 -7 39 9 54 19 17
4 -14 14 -20 32 -20 23 0 26 -2 15 -15 -8 -10 -9 -15 -2 -15 7 0 9 -8 5 -17
-6 -16 -5 -16 11 -4 11 9 13 17 6 21 -7 4 -5 13 7 26 10 11 14 14 9 7 -10 -15
2 -17 23 -4 9 6 12 19 8 37 -4 16 -4 23 -1 17 6 -13 36 -18 47 -7 13 14 -6 34
-26 28 -20 -6 -20 -6 -4 11 17 16 17 18 1 36 -10 11 -12 19 -6 19 7 0 12 -5
12 -12 0 -8 6 -6 17 4 13 13 17 40 20 115 1 54 4 114 7 133 18 156 28 359 19
407 -5 29 -11 35 -56 48 -27 8 -86 17 -131 21 -45 3 -101 12 -126 19 -25 8
-81 17 -125 20 -44 4 -114 14 -155 22 -108 22 -670 28 -755 8z m910 -734 c2
-11 0 -21 -6 -21 -5 0 -9 12 -9 27 0 30 9 27 15 -6z m11 -71 c9 0 12 5 8 12
-4 7 -3 8 5 4 15 -9 5 -26 -16 -26 -9 0 -13 -6 -9 -15 8 -21 -3 -45 -19 -39
-16 6 -27 42 -15 49 5 3 11 -3 13 -12 3 -10 6 0 7 22 1 22 4 32 7 23 2 -10 11
-18 19 -18z m-64 -12 c-8 -8 -9 -4 -5 13 4 13 8 18 11 10 2 -7 -1 -18 -6 -23z
m320 4 c-6 -2 -10 -7 -7 -12 3 -4 -3 -11 -12 -14 -10 -4 -14 -4 -11 0 4 4 3
14 -2 24 -8 15 -5 16 18 12 15 -3 21 -7 14 -10z m63 9 c3 -5 1 -12 -5 -16 -5
-3 -10 1 -10 9 0 18 6 21 15 7z m-232 -33 c-11 -13 -24 -33 -28 -45 -7 -26
-20 -30 -28 -9 -4 11 -1 13 11 9 15 -6 15 -5 3 10 -8 10 -11 20 -7 24 3 3 6 1
6 -6 0 -7 10 -1 23 13 12 14 26 26 31 26 5 0 0 -10 -11 -22z m116 -12 c-3 -3
-11 5 -18 17 -13 21 -12 21 5 5 10 -10 16 -20 13 -22z m-171 10 c-7 -8 -16
-12 -21 -9 -11 7 2 23 19 23 12 0 12 -2 2 -14z m284 -20 c4 -6 5 -13 2 -15 -3
-3 -8 -1 -12 5 -4 6 -16 16 -27 23 -18 11 -18 11 5 5 14 -4 28 -12 32 -18z
m-2072 10 c0 -3 -4 -8 -10 -11 -5 -3 -10 -1 -10 4 0 6 5 11 10 11 6 0 10 -2
10 -4z m2029 -22 c4 3 12 -4 19 -14 7 -11 8 -21 2 -25 -5 -3 -12 0 -16 6 -4 8
-9 7 -16 -2 -7 -10 -8 -8 -5 8 3 13 1 26 -4 29 -5 3 -9 11 -9 17 0 7 5 4 11
-6 6 -9 14 -15 18 -13z m-263 -26 c-3 -13 -6 -29 -6 -35 0 -7 -7 -13 -15 -13
-9 0 -12 6 -8 18 5 14 3 14 -11 -3 -10 -11 -14 -14 -11 -7 5 9 -1 15 -14 19
-23 6 -27 18 -9 29 6 4 14 2 16 -4 5 -17 32 -15 38 3 10 24 27 17 20 -7z
m-1772 -51 c7 -6 4 -7 -7 -3 -10 3 -23 6 -29 6 -6 0 -5 7 3 16 11 13 14 13 18
3 2 -8 9 -18 15 -22z m1818 15 c-7 -2 -12 -8 -12 -13 0 -6 4 -7 10 -4 6 4 7
-1 3 -11 -5 -13 -3 -15 8 -9 11 6 12 5 2 -5 -19 -21 -45 17 -30 41 6 10 16 15
21 12 6 -4 5 -8 -2 -11z m-52 -32 c0 -5 -4 -10 -10 -10 -5 0 -10 -7 -10 -16 0
-8 -4 -12 -10 -9 -19 12 -11 45 10 45 11 0 20 -4 20 -10z m120 0 c0 -5 -2 -10
-4 -10 -3 0 -8 5 -11 10 -3 6 -1 10 4 10 6 0 11 -4 11 -10z m-1830 -14 c0 -2
-7 -7 -16 -10 -8 -3 -12 -2 -9 4 6 10 25 14 25 6z m1864 -18 c-3 -5 -13 -7
-21 -4 -9 4 -22 1 -30 -5 -11 -9 -17 -9 -26 1 -10 10 -9 12 5 7 10 -3 20 -2
22 2 3 5 17 9 31 9 13 0 22 -5 19 -10z m-1804 -2 c0 -3 -4 -8 -10 -11 -5 -3
-10 -1 -10 4 0 6 5 11 10 11 6 0 10 -2 10 -4z m1634 -56 c2 0 2 10 -1 23 -3
12 -3 19 1 16 4 -4 8 -20 10 -36 4 -30 4 -30 -24 -20 -16 6 -27 14 -24 18 2 4
0 10 -6 14 -5 3 -10 11 -10 16 0 6 5 7 10 4 6 -3 10 0 10 7 1 7 8 1 16 -14 8
-16 16 -28 18 -28z m79 13 c-9 -23 -20 -14 -15 13 3 17 7 22 12 13 5 -7 6 -18
3 -26z m-1739 -1 c3 -5 -1 -9 -9 -9 -8 0 -12 4 -9 9 3 4 7 8 9 8 2 0 6 -4 9
-8z m-63 -20 c-6 -12 -7 -23 -1 -31 6 -6 2 -5 -7 3 -13 12 -14 18 -3 30 17 22
23 20 11 -2z m119 -7 c0 -6 -9 -11 -20 -11 -11 0 -20 6 -20 13 0 6 9 11 20 10
11 -1 20 -6 20 -12z m-83 -10 c0 -8 -4 -15 -8 -15 -11 0 -20 16 -12 24 11 11
20 7 20 -9z m133 -25 c0 -24 -9 -25 -36 -5 -14 11 -15 14 -3 9 10 -3 20 -1 24
5 10 16 15 13 15 -9z m-80 -46 c0 -8 -5 -12 -10 -9 -6 4 -8 10 -5 15 3 4 -1
10 -9 13 -20 8 -28 -19 -10 -33 22 -19 16 -31 -10 -19 -24 11 -25 28 -3 56 12
16 47 -1 47 -23z m80 -64 c0 -5 -5 -10 -11 -10 -5 0 -7 5 -4 10 3 6 8 10 11
10 2 0 4 -4 4 -10z m-70 -4 c0 -3 -4 -8 -10 -11 -5 -3 -10 -1 -10 4 0 6 5 11
10 11 6 0 10 -2 10 -4z m66 -83 c-1 -30 -10 -29 -24 1 -9 21 -9 24 7 23 13 -1
18 -8 17 -24z m-78 -55 c-2 -7 -11 -19 -21 -26 -13 -10 -15 -17 -7 -33 6 -11
7 -19 2 -19 -21 0 -21 45 0 67 25 26 29 28 26 11z m79 6 c-3 -3 -12 -4 -19 -1
-8 3 -5 6 6 6 11 1 17 -2 13 -5z m-440 -12 c7 -4 11 -26 10 -49 -1 -36 -3 -39
-19 -30 -10 7 -14 15 -9 20 5 5 5 22 1 38 -9 30 -4 35 17 21z m372 -76 c9 -11
9 -16 0 -22 -8 -4 -9 -3 -5 4 4 7 2 12 -3 12 -6 0 -11 5 -11 10 0 14 5 13 19
-4z m79 -43 c10 -9 11 -13 3 -13 -7 0 -9 -5 -5 -12 4 -7 3 -8 -5 -4 -6 4 -9
12 -6 17 4 5 0 12 -8 15 -9 3 -12 14 -8 32 l5 27 4 -25 c2 -14 11 -31 20 -37z
m-92 -18 c1 -14 -2 -25 -7 -25 -10 0 -12 33 -2 43 3 4 7 7 7 7 1 0 2 -11 2
-25z m-27 -45 c0 -10 -3 -8 -8 4 -5 14 -10 16 -15 8 -4 -7 -13 -12 -19 -12 -7
0 -4 5 6 11 9 5 17 18 18 27 0 14 2 13 9 -3 5 -11 9 -27 9 -35z m-99 -62 c0
-6 -7 -5 -15 2 -8 7 -15 17 -15 22 0 6 7 5 15 -2 8 -7 15 -17 15 -22z m80 12
c0 -5 -7 -7 -15 -4 -8 4 -12 10 -9 15 6 11 24 2 24 -11z m-87 -37 c-7 -2 -19
-2 -25 0 -7 3 -2 5 12 5 14 0 19 -2 13 -5z m-38 -133 c3 -5 1 -10 -4 -10 -6 0
-11 5 -11 10 0 6 2 10 4 10 3 0 8 -4 11 -10z m-148 -51 c2 -16 -1 -19 -9 -11
-5 5 -7 15 -4 21 10 15 12 14 13 -10z m26 -29 c-3 -12 -14 -20 -27 -20 -20 0
-20 1 4 20 14 11 26 20 27 20 0 0 -1 -9 -4 -20z m77 -18 c0 -12 -3 -12 -15 -2
-8 7 -15 13 -15 15 0 1 7 2 15 2 8 0 15 -7 15 -15z m-74 -54 c-9 -5 -13 -15
-10 -21 4 -7 1 -6 -7 2 -10 10 -11 15 -2 18 7 2 9 11 6 20 -5 12 -3 14 7 8 9
-5 11 -4 6 3 -4 7 -4 18 1 25 5 8 9 2 11 -17 2 -19 -2 -32 -12 -38z m54 22 c0
-5 -2 -10 -4 -10 -3 0 -8 5 -11 10 -3 6 -1 10 4 10 6 0 11 -4 11 -10z m-6 -85
c-4 -8 -8 -15 -10 -15 -2 0 -4 7 -4 15 0 8 4 15 10 15 5 0 7 -7 4 -15z m2180
-158 c-3 -9 -10 -17 -15 -17 -12 0 -11 17 1 25 6 4 7 12 4 18 -5 9 -4 9 5 1 6
-6 9 -18 5 -27z m70 -69 c3 -13 2 -26 -3 -31 -5 -5 -11 5 -13 22 -5 36 7 42
16 9z m-91 -8 c-3 -11 -9 -20 -14 -20 -10 0 -12 24 -2 33 13 13 21 7 16 -13z
m-28 -20 c4 -16 11 -30 16 -30 6 0 7 -5 4 -10 -4 -6 -11 -8 -16 -5 -5 4 -9 0
-9 -7 0 -10 -2 -10 -9 1 -7 11 -10 10 -18 -4 -9 -16 -11 -16 -16 -1 -4 10 -1
19 9 23 8 3 13 12 10 20 -4 9 -2 11 6 7 7 -5 9 0 6 14 -4 12 -2 22 2 22 5 0
11 -13 15 -30z m-200 0 c3 -6 -4 -10 -17 -10 -18 0 -20 2 -8 10 19 12 18 12
25 0z m-167 -25 c-3 -3 -9 2 -12 12 -6 14 -5 15 5 6 7 -7 10 -15 7 -18z m115
-6 c-4 -15 -9 -17 -17 -9 -8 8 -7 13 4 20 8 5 16 10 17 10 0 0 -1 -9 -4 -21z
m38 -12 c-10 -9 -11 -8 -5 6 3 10 9 15 12 12 3 -3 0 -11 -7 -18z m349 -11 c0
-2 -8 -10 -17 -17 -16 -13 -17 -12 -4 4 13 16 21 21 21 13z m-430 -26 c0 -5
-4 -10 -10 -10 -5 0 -10 5 -10 10 0 6 5 10 10 10 6 0 10 -4 10 -10z m77 -36
c-3 -3 -12 -4 -19 -1 -8 3 -5 6 6 6 11 1 17 -2 13 -5z m173 -58 c0 -3 -4 -8
-10 -11 -5 -3 -10 -1 -10 4 0 6 5 11 10 11 6 0 10 -2 10 -4z m-1893 -51 c0
-11 -4 -12 -14 -4 -7 6 -13 13 -13 15 0 2 6 4 13 4 8 0 14 -7 14 -15z"/>
<path d="M1195 6316 c-11 -70 -1 -183 45 -496 22 -151 40 -285 40 -296 0 -17
-8 -23 -40 -28 -67 -10 -80 -67 -30 -132 16 -21 30 -44 30 -50 0 -6 9 -19 20
-29 15 -14 29 -16 64 -12 l45 6 46 -84 c43 -79 75 -108 75 -67 0 9 -12 49 -26
87 -121 337 -168 512 -213 795 -6 36 -15 95 -21 131 -5 36 -11 92 -11 125 -2
86 -15 112 -24 50z"/>
<path d="M33395 6331 c-3 -5 -1 -12 5 -16 5 -3 10 1 10 9 0 18 -6 21 -15 7z"/>
<path d="M10467 6191 c-3 -12 -1 -21 3 -21 15 0 23 21 12 32 -6 6 -11 2 -15
-11z"/>
<path d="M33368 6203 c-20 -5 -22 -12 -9 -32 7 -11 10 -9 16 8 3 12 11 19 16
16 5 -4 9 -1 9 4 0 11 -3 12 -32 4z"/>
<path d="M33240 6178 c0 -9 -3 -25 -6 -35 -6 -17 -6 -17 11 -2 13 13 15 21 6
35 -9 17 -10 17 -11 2z"/>
<path d="M33320 6185 c0 -6 4 -17 10 -25 6 -9 5 -17 -3 -22 -8 -5 -6 -8 6 -8
14 0 17 5 12 23 -8 25 -25 47 -25 32z"/>
<path d="M10405 6150 c-3 -5 -1 -10 4 -10 6 0 11 5 11 10 0 6 -2 10 -4 10 -3
0 -8 -4 -11 -10z"/>
<path d="M31131 6130 c-1 -15 -6 -31 -12 -37 -8 -8 -7 -13 1 -18 8 -5 5 -14
-10 -30 -18 -19 -19 -26 -9 -48 7 -15 16 -24 21 -21 5 3 2 14 -6 23 -14 15
-14 19 0 39 8 12 23 22 32 22 16 -1 16 -2 0 -14 -27 -20 -22 -36 12 -36 22 0
30 5 29 18 0 10 -3 12 -6 5 -2 -7 -14 -13 -24 -13 -11 0 -17 5 -14 10 4 6 10
8 15 5 4 -3 10 2 14 10 3 10 -3 17 -18 21 -23 5 -27 17 -14 39 3 6 2 19 -3 30
-7 18 -8 17 -8 -5z"/>
<path d="M31190 6081 c0 -22 13 -39 25 -35 16 7 7 44 -11 44 -8 0 -14 -4 -14
-9z"/>
<path d="M33360 6074 c-9 -10 -9 -14 -1 -14 6 0 11 4 11 10 0 5 7 7 15 4 8 -4
15 -4 15 -1 0 13 -30 14 -40 1z"/>
<path d="M32949 6018 c-11 -20 -10 -21 3 -11 8 7 18 10 21 6 4 -3 7 -1 7 5 0
22 -19 22 -31 0z"/>
<path d="M31246 6003 c-4 -4 -17 -8 -28 -8 -12 0 -23 -6 -26 -14 -3 -10 2 -12
21 -7 15 3 29 1 33 -6 4 -6 3 -8 -2 -5 -9 5 -12 -36 -4 -55 1 -5 3 -12 4 -17
0 -5 5 -13 10 -18 5 -5 6 -3 2 5 -4 6 -3 12 3 12 6 0 8 8 4 18 -3 9 -2 14 2 9
5 -4 10 -24 12 -44 2 -28 0 -34 -9 -25 -17 17 -33 15 -19 -2 10 -11 9 -16 -3
-23 -10 -5 -12 -13 -7 -22 7 -11 10 -9 16 8 3 12 10 19 14 16 14 -8 31 44 25
75 -4 16 -13 30 -20 30 -12 0 -20 40 -15 73 1 9 -4 9 -13 0z"/>
<path d="M33120 5993 c8 -3 19 -11 23 -17 6 -7 7 -6 4 4 -2 8 -12 16 -23 17
-13 2 -15 1 -4 -4z"/>
<path d="M31080 5980 c0 -5 5 -10 11 -10 5 0 7 5 4 10 -3 6 -8 10 -11 10 -2 0
-4 -4 -4 -10z"/>
<path d="M33062 5973 c9 -10 18 -25 21 -33 4 -12 6 -12 6 2 1 9 7 19 14 21 6
3 2 6 -10 6 -13 1 -23 6 -23 11 0 6 -5 10 -12 10 -7 0 -6 -6 4 -17z"/>
<path d="M33030 5944 c0 -8 5 -12 10 -9 6 4 8 11 5 16 -9 14 -15 11 -15 -7z"/>
<path d="M31150 5930 c0 -5 5 -10 10 -10 6 0 10 5 10 10 0 6 -4 10 -10 10 -5
0 -10 -4 -10 -10z"/>
<path d="M31210 5913 c0 -7 -7 -10 -17 -7 -16 5 -16 4 0 -6 14 -9 16 -15 6
-26 -9 -11 -9 -14 0 -14 7 0 9 -5 5 -12 -4 -6 -3 -8 3 -5 15 9 22 53 12 69 -6
9 -9 10 -9 1z"/>
<path d="M33085 5910 c3 -5 8 -10 11 -10 2 0 4 5 4 10 0 6 -5 10 -11 10 -5 0
-7 -4 -4 -10z"/>
<path d="M32998 5885 c-3 -14 -1 -25 3 -25 5 0 9 11 9 25 0 14 -2 25 -4 25 -2
0 -6 -11 -8 -25z"/>
<path d="M31130 5870 c0 -5 5 -10 11 -10 5 0 7 5 4 10 -3 6 -8 10 -11 10 -2 0
-4 -4 -4 -10z"/>
<path d="M32919 5835 c-4 -1 -6 -35 -2 -35 10 0 43 21 43 28 0 6 -32 11 -41 7z"/>
<path d="M32962 5820 c-7 -11 -12 -25 -12 -32 1 -7 8 0 16 15 18 33 14 46 -4
17z"/>
<path d="M33086 5807 c3 -10 9 -15 12 -12 3 3 0 11 -7 18 -10 9 -11 8 -5 -6z"/>
<path d="M31194 5784 c2 -16 7 -27 12 -24 10 5 7 31 -6 44 -5 5 -8 -4 -6 -20z"/>
<path d="M31230 5770 c0 -5 5 -10 11 -10 5 0 7 5 4 10 -3 6 -8 10 -11 10 -2 0
-4 -4 -4 -10z"/>
<path d="M32911 5772 c-1 -7 4 -22 9 -33 6 -10 7 -19 2 -19 -11 0 -9 -106 2
-117 4 -4 7 -3 6 2 -1 6 -1 13 0 18 6 18 4 67 -2 67 -5 0 -8 4 -8 10 0 5 6 7
13 5 7 -3 12 4 12 20 0 14 -4 25 -8 25 -5 0 -5 5 -1 12 4 6 3 8 -4 4 -5 -3
-13 0 -15 6 -4 10 -6 10 -6 0z"/>
<path d="M31246 5738 c3 -10 1 -18 -5 -18 -6 0 -11 -7 -11 -15 0 -8 -5 -15
-12 -15 -6 0 -8 -3 -5 -7 4 -3 -2 -17 -14 -29 -21 -22 -21 -23 -1 -17 11 3 23
16 26 29 4 13 10 23 14 23 34 -6 42 15 17 47 -13 16 -14 16 -9 2z"/>
<path d="M31178 5718 c-15 -11 -15 -15 -2 -26 12 -11 14 -10 14 7 0 11 6 22
13 24 6 3 7 6 1 6 -5 1 -18 -5 -26 -11z"/>
<path d="M10240 5699 c0 -5 5 -7 10 -4 6 3 10 8 10 11 0 2 -4 4 -10 4 -5 0
-10 -5 -10 -11z"/>
<path d="M32960 5680 c-8 -5 -12 -12 -9 -15 4 -3 12 1 19 10 14 17 11 19 -10
5z"/>
<path d="M32950 5590 c0 -5 5 -10 11 -10 5 0 7 5 4 10 -3 6 -8 10 -11 10 -2 0
-4 -4 -4 -10z"/>
<path d="M31071 5564 c0 -11 3 -14 6 -6 3 7 2 16 -1 19 -3 4 -6 -2 -5 -13z"/>
<path d="M33075 5560 c3 -5 8 -10 11 -10 2 0 4 5 4 10 0 6 -5 10 -11 10 -5 0
-7 -4 -4 -10z"/>
<path d="M30999 5542 c9 -7 10 -11 2 -15 -7 -4 -8 -5 0 -4 15 3 13 21 -3 25
-10 3 -10 2 1 -6z"/>
<path d="M10060 5523 c0 -4 5 -15 10 -23 8 -13 10 -13 10 2 0 9 -4 20 -10 23
-5 3 -10 3 -10 -2z"/>
<path d="M30950 5515 c0 -8 4 -15 8 -15 5 0 9 7 9 15 0 8 -4 15 -9 15 -4 0 -8
-7 -8 -15z"/>
<path d="M32910 5516 c0 -8 7 -16 15 -20 13 -4 14 -2 5 14 -13 23 -20 26 -20
6z"/>
<path d="M31007 5483 c4 -10 2 -14 -4 -10 -6 4 -14 0 -17 -9 -8 -22 -8 -23 12
-20 18 3 31 56 13 56 -6 0 -7 -7 -4 -17z"/>
<path d="M31037 5477 c-4 -10 -2 -17 4 -17 6 0 4 -7 -5 -15 -15 -15 -12 -45 5
-45 14 0 21 43 11 69 -7 20 -10 21 -15 8z"/>
<path d="M31131 5474 c0 -11 3 -14 6 -6 3 7 2 16 -1 19 -3 4 -6 -2 -5 -13z"/>
<path d="M32917 5430 c-3 -11 -1 -20 4 -20 5 0 9 9 9 20 0 11 -2 20 -4 20 -2
0 -6 -9 -9 -20z"/>
<path d="M9985 5421 c-6 -11 13 -26 22 -17 4 3 1 6 -6 6 -7 0 -9 5 -6 10 3 6
4 10 1 10 -3 0 -7 -4 -11 -9z"/>
<path d="M9780 5310 c0 -6 7 -10 15 -10 8 0 15 2 15 4 0 2 -7 6 -15 10 -8 3
-15 1 -15 -4z"/>
<path d="M9785 5282 c-16 -12 -16 -32 0 -26 8 4 15 12 15 20 0 16 -1 16 -15 6z"/>
<path d="M33401 5174 c0 -11 3 -14 6 -6 3 7 2 16 -1 19 -3 4 -6 -2 -5 -13z"/>
<path d="M9610 5149 c0 -5 5 -7 10 -4 6 3 10 8 10 11 0 2 -4 4 -10 4 -5 0 -10
-5 -10 -11z"/>
<path d="M33271 5144 c0 -11 3 -14 6 -6 3 7 2 16 -1 19 -3 4 -6 -2 -5 -13z"/>
<path d="M8816 5117 c3 -10 9 -15 12 -12 3 3 0 11 -7 18 -10 9 -11 8 -5 -6z"/>
<path d="M33240 5109 c0 -5 5 -7 10 -4 6 3 10 8 10 11 0 2 -4 4 -10 4 -5 0
-10 -5 -10 -11z"/>
<path d="M8951 5094 c0 -11 3 -14 6 -6 3 7 2 16 -1 19 -3 4 -6 -2 -5 -13z"/>
<path d="M8895 5090 c-2 -3 5 -7 16 -7 10 -1 19 2 19 6 0 9 -29 10 -35 1z"/>
<path d="M9327 5079 c7 -7 15 -10 18 -7 3 3 -2 9 -12 12 -14 6 -15 5 -6 -5z"/>
<path d="M32931 5074 c0 -11 3 -14 6 -6 3 7 2 16 -1 19 -3 4 -6 -2 -5 -13z"/>
<path d="M33105 5079 c-4 -6 -5 -12 -2 -15 2 -3 7 2 10 11 7 17 1 20 -8 4z"/>
<path d="M33330 5081 c0 -6 4 -13 10 -16 6 -3 7 1 4 9 -7 18 -14 21 -14 7z"/>
<path d="M33003 5073 c-15 -5 -18 -43 -4 -43 5 0 11 11 13 25 3 14 5 25 4 24
0 0 -7 -3 -13 -6z"/>
<path d="M8995 5050 c3 -5 11 -10 16 -10 6 0 7 5 4 10 -3 6 -11 10 -16 10 -6
0 -7 -4 -4 -10z"/>
<path d="M9321 5040 c-8 -4 -21 -6 -30 -3 -11 4 -10 1 3 -9 17 -14 22 -14 34
-1 17 17 12 25 -7 13z"/>
<path d="M33070 5038 c0 -6 3 -8 7 -5 3 4 13 1 22 -6 14 -11 14 -10 2 6 -15
20 -31 22 -31 5z"/>
<path d="M33370 5043 c0 -4 5 -15 10 -23 8 -13 10 -13 10 2 0 9 -4 20 -10 23
-5 3 -10 3 -10 -2z"/>
<path d="M9400 5028 c0 -9 -10 -23 -22 -32 l-23 -17 23 11 c24 12 39 36 28 47
-3 4 -6 -1 -6 -9z"/>
<path d="M32920 5026 c0 -8 4 -17 9 -20 5 -4 7 3 4 14 -6 23 -13 26 -13 6z"/>
<path d="M33020 5025 c-17 -20 -5 -54 13 -35 9 10 9 14 -1 17 -10 4 -10 8 -1
19 6 8 9 14 6 14 -2 0 -10 -7 -17 -15z"/>
<path d="M33150 5021 c0 -11 5 -23 10 -26 6 -3 10 3 10 15 0 13 4 19 12 14 7
-4 8 -3 4 4 -12 19 -36 14 -36 -7z"/>
<path d="M33200 5008 c0 -27 16 -55 25 -46 4 4 3 13 -1 20 -5 7 -7 21 -6 31 2
9 -2 17 -7 17 -6 0 -11 -10 -11 -22z"/>
<path d="M33332 5018 c6 -18 28 -21 28 -4 0 9 -7 16 -16 16 -9 0 -14 -5 -12
-12z"/>
<path d="M32950 5016 c0 -2 7 -6 15 -10 8 -3 15 -1 15 4 0 6 -7 10 -15 10 -8
0 -15 -2 -15 -4z"/>
<path d="M33075 5010 c3 -5 8 -10 11 -10 2 0 4 5 4 10 0 6 -5 10 -11 10 -5 0
-7 -4 -4 -10z"/>
<path d="M33106 5002 c-14 -13 -4 -30 24 -42 16 -7 27 -16 24 -21 -3 -5 3 -9
14 -9 22 0 24 41 2 48 -7 3 -10 0 -6 -7 11 -17 -20 -13 -34 5 -8 8 -9 14 -4
12 5 -2 11 1 14 6 6 10 -25 17 -34 8z"/>
<path d="M32922 4977 c-8 -9 -8 -17 0 -27 8 -13 9 -12 5 1 -3 9 0 22 6 28 6 6
8 11 5 11 -3 0 -10 -6 -16 -13z"/>
<path d="M32950 4979 c0 -5 5 -7 10 -4 6 3 10 8 10 11 0 2 -4 4 -10 4 -5 0
-10 -5 -10 -11z"/>
<path d="M33065 4980 c4 -6 11 -8 16 -5 14 9 11 15 -7 15 -8 0 -12 -5 -9 -10z"/>
<path d="M32877 4966 c-9 -24 -10 -23 13 -29 23 -6 25 2 7 27 -13 18 -14 18
-20 2z"/>
<path d="M11542 4703 c-37 -7 -96 -75 -110 -127 -23 -88 -9 -157 43 -214 88
-98 237 -86 302 25 24 42 28 58 27 125 0 67 -4 82 -28 116 -44 65 -136 94
-234 75z"/>
<path d="M3760 4679 c0 -5 5 -7 10 -4 6 3 10 8 10 11 0 2 -4 4 -10 4 -5 0 -10
-5 -10 -11z"/>
<path d="M4006 4608 c3 -5 10 -6 15 -3 13 9 11 12 -6 12 -8 0 -12 -4 -9 -9z"/>
<path d="M5273 4206 c0 -8 11 -16 24 -19 13 -2 23 0 23 4 0 5 -7 9 -15 9 -8 0
-15 5 -15 10 0 6 -4 10 -8 10 -5 0 -9 -6 -9 -14z"/>
<path d="M9969 3213 c-312 -352 -471 -505 -714 -685 -225 -166 -235 -175 -235
-205 0 -28 14 -45 134 -176 88 -96 156 -147 194 -147 19 0 136 112 527 503
276 277 506 513 509 525 8 25 -18 75 -56 106 -23 19 -114 99 -187 163 -20 18
-43 33 -52 33 -9 0 -63 -53 -120 -117z"/>
<path d="M2000 2987 c0 -16 50 -94 82 -127 13 -14 102 -113 197 -220 241 -272
395 -415 616 -574 251 -180 245 -177 245 -158 0 39 -36 74 -220 219 -129 102
-266 226 -353 321 -73 80 -215 228 -438 455 -88 90 -129 116 -129 84z"/>
<path d="M10493 2578 c-26 -23 -133 -128 -238 -233 -104 -106 -266 -259 -358
-340 -140 -124 -168 -152 -165 -172 3 -28 31 -41 188 -91 52 -17 124 -43 160
-57 135 -56 198 -78 350 -123 36 -10 148 -51 250 -91 102 -40 207 -81 234 -92
27 -10 54 -19 61 -19 7 0 32 -9 56 -20 52 -23 107 -26 115 -5 3 8 -3 38 -14
67 -19 50 -143 331 -162 366 -15 28 -60 132 -105 242 -24 58 -50 119 -59 135
-9 17 -16 34 -16 38 0 8 -31 74 -125 272 -50 104 -92 165 -114 165 -5 0 -31
-19 -58 -42z"/>
<path d="M1477 2086 c-20 -21 -26 -96 -32 -441 -3 -165 -8 -428 -10 -585 -4
-165 -2 -291 3 -299 17 -24 46 -3 147 102 339 351 490 498 750 734 141 128
149 137 141 168 -4 14 -14 28 -24 31 -9 3 -33 12 -52 21 -19 9 -48 19 -65 24
-16 4 -75 23 -130 42 -55 19 -134 45 -175 57 -84 25 -299 94 -345 111 -38 14
-166 49 -182 49 -6 0 -18 -7 -26 -14z"/>
<path d="M8190 1604 c-145 -59 -250 -94 -375 -124 -344 -81 -680 -136 -1014
-166 -58 -5 -70 -9 -56 -17 11 -6 79 -8 184 -4 271 9 700 89 1011 189 151 48
395 161 343 158 -5 -1 -46 -17 -93 -36z"/>
<path d="M4765 1590 c10 -11 23 -20 29 -20 6 0 28 -9 48 -20 71 -38 265 -108
398 -143 380 -102 679 -148 940 -146 134 1 182 13 90 22 -36 4 -161 16 -278
27 -373 36 -632 92 -967 206 -104 36 -210 72 -234 80 -44 14 -44 14 -26 -6z"/>
<path d="M9055 1430 c-3 -5 1 -10 10 -10 9 0 13 5 10 10 -3 6 -8 10 -10 10 -2
0 -7 -4 -10 -10z"/>
<path d="M9033 1368 c0 -26 4 -45 8 -42 5 3 7 10 4 15 -4 5 4 13 17 18 23 10
23 10 1 10 -14 1 -23 9 -26 24 -2 12 -4 1 -4 -25z"/>
<path d="M8991 1362 c-16 -30 -14 -42 9 -42 21 0 27 24 11 49 -7 11 -11 10
-20 -7z m11 -24 c-7 -7 -12 -8 -12 -2 0 14 12 26 19 19 2 -3 -1 -11 -7 -17z"/>
</g>
</svg>
